<svg width="60" height="60" viewBox="0 0 60 60" fill="none" xmlns="http://www.w3.org/2000/svg">
<g clip-path="url(#clip0_1949_1134)">
<mask id="mask0_1949_1134" style="mask-type:luminance" maskUnits="userSpaceOnUse" x="0" y="0" width="60" height="60">
<path d="M0 7.62939e-06H60V60H0V7.62939e-06Z" fill="white"/>
</mask>
<g mask="url(#mask0_1949_1134)">
<path d="M60 30C60 46.5686 46.5685 60 30 60C13.4314 60 0 46.5686 0 30C0 13.4315 13.4314 7.62939e-06 30 7.62939e-06C46.5685 7.62939e-06 60 13.4315 60 30Z" fill="#441C4E"/>
<path d="M34.7462 0.375117C20.4335 2.65043 9.49219 15.0472 9.49219 30C9.49219 44.9529 20.4335 57.3497 34.7462 59.625C39.3312 58.8961 43.5696 57.1289 47.2136 54.5713C45.9321 52.6455 45.1852 50.3331 45.1852 47.8465C45.1852 43.7215 47.2406 40.0758 50.3824 37.8809L43.2398 26.4867L39.4922 20.5078V1.53422C37.9614 1.02398 36.3756 0.634102 34.7462 0.375117Z" fill="#58D0F5"/>
<path d="M47.2136 54.5717C45.932 52.6459 45.1852 50.3335 45.1852 47.8469C45.1852 43.7219 47.2407 40.0762 50.3825 37.8812L43.2399 26.4871L39.4922 20.5082V14.5609C29.9731 17.4602 23.0473 26.3102 23.0473 36.7773C23.0473 46.9412 29.5769 55.5789 38.6696 58.7266C41.7569 57.796 44.6342 56.3821 47.2136 54.5717Z" fill="#31B8CB"/>
<path d="M45.1852 47.8464C45.1852 43.7214 47.2406 40.0757 50.3824 37.8808L43.2399 26.4866C37.6547 29.4948 33.859 35.3964 33.859 42.1839C33.859 48.5964 37.2485 54.2181 42.3332 57.3555C44.0527 56.579 45.6851 55.6439 47.2136 54.5712C45.9321 52.6454 45.1852 50.333 45.1852 47.8464Z" fill="#239BC0"/>
<path d="M53.9934 6.00662C62.0022 14.0154 62.0022 27.0003 53.9934 35.009C45.9846 43.0178 32.9997 43.0178 24.991 35.009C16.9822 27.0003 16.9822 14.0154 24.991 6.00662C32.9997 -2.00221 45.9846 -2.00221 53.9934 6.00662Z" fill="#F1F4DF"/>
<path d="M56.3335 29.9908C48.3246 37.9996 35.3398 37.9996 27.3311 29.9908C21.7614 24.4211 20.0665 16.4452 22.2436 9.40959C17.1227 17.3516 18.0374 28.0555 24.991 35.0091C32.9998 43.0178 45.9846 43.0178 53.9934 35.0091C56.4325 32.5699 58.1274 29.6689 59.0808 26.5878C58.3036 27.7932 57.3887 28.9355 56.3335 29.9908Z" fill="#DCE5E0"/>
<path d="M59.9906 19.9194L59.9857 19.9195C54.6374 19.9948 49.6095 17.9536 45.8281 14.1723C42.0468 10.3909 40.0057 5.36308 40.0808 0.0149933L40.081 0.00972009C39.495 -0.00703773 38.9086 0.00163289 38.3233 0.034797C38.2532 5.84519 40.4756 11.3058 44.5852 15.4152C48.6946 19.5246 54.1552 21.7472 59.9654 21.6771C59.9986 21.0918 60.0074 20.5053 59.9906 19.9194Z" fill="#F64C3D"/>
<path d="M47.128 14.1154L44.5282 16.7152C44.185 17.0584 43.6284 17.0585 43.2852 16.7152C42.942 16.3719 42.942 15.8155 43.2852 15.4723L45.885 12.8724C46.2282 12.5291 46.7848 12.5291 47.128 12.8724C47.4713 13.2157 47.4713 13.7721 47.128 14.1154Z" fill="#F9624D"/>
<path d="M44.1616 10.2485C44.1083 10.3019 44.0474 10.3491 43.9791 10.3885L40.795 12.2268C40.3746 12.4696 39.837 12.3255 39.5943 11.9051C39.3517 11.4847 39.4959 10.9466 39.9161 10.7046L43.1002 8.86619C43.5205 8.62338 44.0581 8.76752 44.3007 9.18787C44.5041 9.5399 44.436 9.9742 44.1616 10.2485Z" fill="#F9624D"/>
<path d="M42.2955 5.74647C42.1901 5.85194 42.0564 5.93187 41.902 5.97335L38.3505 6.92491C37.8817 7.05054 37.3997 6.77233 37.2742 6.30347C37.1484 5.83437 37.4267 5.35272 37.8956 5.22698L41.4471 4.27542C41.916 4.1498 42.398 4.428 42.5235 4.89687C42.6077 5.2114 42.5103 5.53167 42.2955 5.74647Z" fill="#F9624D"/>
<path d="M49.156 20.2664C48.8815 20.5408 48.4474 20.6088 48.0953 20.4055C47.675 20.1628 47.5308 19.6253 47.7736 19.2049L49.6121 16.0208C49.8543 15.6003 50.3922 15.4563 50.8126 15.699C51.2329 15.9417 51.377 16.4794 51.1342 16.8997L49.2959 20.0838C49.2565 20.1521 49.2092 20.2132 49.156 20.2664Z" fill="#F9624D"/>
<path d="M54.5463 22.4978C54.3315 22.7126 54.0112 22.8099 53.6967 22.7257C53.2278 22.6002 52.9496 22.1182 53.0753 21.6493L54.0268 18.0978C54.1525 17.6291 54.6343 17.3508 55.1033 17.4764C55.5722 17.6019 55.8504 18.0839 55.7248 18.5528L54.7732 22.1042C54.7317 22.2586 54.6518 22.3923 54.5463 22.4978Z" fill="#F9624D"/>
<path d="M18.9937 21.0966L18.999 21.0965C24.3472 21.0214 29.375 23.0625 33.1563 26.8438C36.9377 30.6252 38.9788 35.6531 38.9035 41.0014V41.0063C39.4895 41.0231 40.0759 41.0144 40.6612 40.9811C40.7311 35.1709 38.5086 29.7103 34.3992 25.6009C30.2899 21.4915 24.8292 19.2689 19.0189 19.339C18.9856 19.9243 18.977 20.5107 18.9937 21.0966Z" fill="#F64C3D"/>
<path d="M40.1263 35.9255C39.5008 35.8736 38.8774 35.7933 38.2579 35.6844C38.7086 37.3952 38.9292 39.1797 38.9035 41.0016L38.9034 41.0065C39.0358 41.0104 39.1684 41.0124 39.3008 41.0137C39.32 41.0138 39.3393 41.0142 39.3586 41.0143C39.489 41.0151 39.6193 41.0145 39.7496 41.0129C39.7673 41.0126 39.7851 41.0125 39.8028 41.0122C39.9376 41.0102 40.0723 41.0068 40.207 41.0021C40.2171 41.0017 40.2272 41.0014 40.2372 41.001C40.3786 40.9959 40.5199 40.9894 40.6611 40.9814C40.6818 39.2564 40.499 37.5626 40.1263 35.9255Z" fill="#E83C34"/>
<path d="M18.9989 21.0968C20.0699 21.0818 21.1277 21.153 22.1656 21.3047C21.9873 20.6999 21.8364 20.0889 21.7151 19.4729C20.8277 19.3733 19.9279 19.3282 19.0196 19.3391C19.018 19.3651 19.0166 19.3911 19.0152 19.417C19.01 19.5175 19.0052 19.618 19.0014 19.7186C18.9995 19.7652 18.998 19.812 18.9966 19.8587C18.9936 19.954 18.9911 20.0494 18.9893 20.1446C18.9884 20.1986 18.9877 20.2525 18.9872 20.3065C18.9863 20.3943 18.9861 20.482 18.9862 20.5698C18.9864 20.6299 18.9869 20.6902 18.9876 20.7503C18.9885 20.8336 18.99 20.9169 18.992 21.0002C18.9927 21.0325 18.9938 21.0647 18.9947 21.0968H18.9989Z" fill="#E83C34"/>
<path d="M35.6992 25.5441L33.0994 28.1439C32.7561 28.4871 32.1996 28.4873 31.8564 28.1439C31.5131 27.8006 31.5131 27.2442 31.8564 26.901L34.4562 24.3011C34.7994 23.958 35.3559 23.9578 35.6992 24.3011C36.0424 24.6444 36.0424 25.2008 35.6992 25.5441Z" fill="#F9624D"/>
<path d="M29.2325 25.1775C28.958 25.452 28.5238 25.5199 28.1718 25.3166C27.7515 25.0739 27.6073 24.5364 27.8501 24.116L29.6886 20.9319C29.9309 20.5114 30.4687 20.3674 30.889 20.6101C31.3094 20.8528 31.4535 21.3905 31.2107 21.8108L29.3724 24.9949C29.333 25.0633 29.2857 25.1243 29.2325 25.1775Z" fill="#F9624D"/>
<path d="M24.7307 23.3112C24.5158 23.526 24.1956 23.6234 23.881 23.5392C23.4122 23.4137 23.134 22.9317 23.2596 22.4628L24.2112 18.9113C24.3369 18.4426 24.8187 18.1641 25.2876 18.2899C25.7565 18.4154 26.0347 18.8974 25.9091 19.3662L24.9575 22.9177C24.916 23.0721 24.8361 23.2058 24.7307 23.3112Z" fill="#F9624D"/>
<path d="M39.251 30.1714C39.1976 30.2247 39.1367 30.2719 39.0684 30.3113L35.8843 32.1496C35.4639 32.3924 34.9263 32.2483 34.6836 31.828C34.4409 31.4076 34.5851 30.8696 35.0054 30.6275L38.1895 28.789C38.6098 28.5462 39.1474 28.6904 39.3901 29.1107C39.5934 29.4628 39.5253 29.8971 39.251 30.1714Z" fill="#F9624D"/>
<path d="M41.4823 35.5619C41.3768 35.6674 41.2431 35.7473 41.0888 35.7888L37.5373 36.7403C37.0684 36.866 36.5864 36.5878 36.4609 36.1189C36.3352 35.6499 36.6135 35.168 37.0824 35.0424L40.6339 34.0908C41.1027 33.9652 41.5847 34.2434 41.7102 34.7123C41.7945 35.0268 41.6971 35.3471 41.4823 35.5619Z" fill="#F9624D"/>
</g>
</g>
<defs>
<clipPath id="clip0_1949_1134">
<rect width="60" height="60" fill="white"/>
</clipPath>
</defs>
</svg>
