<svg width="60" height="60" viewBox="0 0 60 60" fill="none" xmlns="http://www.w3.org/2000/svg">
<g clip-path="url(#clip0_1949_1116)">
<path d="M56.1624 43.9556C51.2497 43.9556 47.2672 47.9381 47.2672 52.8508V54.3837C44.4628 56.4284 41.2819 57.9877 37.8482 58.9386C36.7516 58.6783 35.5277 58.5329 34.2365 58.5329C31.7526 58.5329 27.675 59.9089 27.5329 59.8969C12.3543 58.6228 0.431268 45.698 0.662047 30.2127C0.90037 14.2135 13.9442 1.31738 30 1.31738C46.1835 1.31738 59.246 14.2995 59.3409 30.4828C59.3692 35.3344 58.2201 39.9151 56.1624 43.9556Z" fill="#49B4FA"/>
<path d="M40.4513 4.99218C42.6054 9.20559 43.8248 14.0069 43.8248 19.1021C43.8248 35.8255 30.6883 49.3824 14.4835 49.3824C11.7222 49.3824 9.04995 48.9887 6.51666 48.2528C2.83821 43.3507 0.658691 37.2592 0.658691 30.6588C0.658691 15.6006 12.0022 3.1917 26.6102 1.51122C26.6664 1.51086 26.7226 1.51074 26.7789 1.51074C31.7161 1.51062 36.3684 2.76918 40.4513 4.99218Z" fill="#63BCFA"/>
<path d="M44.1619 41.0406C43.2834 43.3891 41.6866 46.5001 39.6109 49.7568C39.328 50.2006 39.0437 50.6354 38.7594 51.0597C37.7993 52.4921 37.3771 54.218 37.552 55.9334L37.858 58.9356C35.357 59.629 32.7218 59.9997 30 59.9997C29.1691 59.9997 28.3462 59.965 27.5328 59.8974L27.5993 53.7805C26.9098 52.8708 26.2106 51.8944 25.5174 50.8667C23.3575 47.6653 21.6803 44.597 20.7407 42.2721C20.1809 40.8866 21.9189 39.7156 22.9939 40.7536C23.7803 41.5128 24.6449 42.4549 25.5492 43.5411C24.5466 40.6036 23.8609 37.9101 23.5532 35.8399C23.3325 34.355 25.2894 33.6163 26.0952 34.8829C26.9906 36.2902 27.9641 38.1551 28.913 40.3119C28.751 36.4666 28.9284 32.9872 29.3439 30.5217C29.592 29.049 31.6861 28.9603 32.0585 30.4065C32.6836 32.8348 33.157 36.2992 33.3212 40.1573C33.3413 40.6295 33.3563 41.0963 33.3664 41.5564C33.9343 37.9688 34.732 34.7916 35.5671 32.5588C36.0915 31.1567 38.1652 31.4615 38.2561 32.9557C38.4084 35.4586 38.2145 38.95 37.6424 42.7692C37.5058 43.6813 37.3539 44.5692 37.1901 45.4246C38.8409 43.0255 40.4761 40.9993 41.8682 39.5829C42.9167 38.5163 44.686 39.6395 44.1619 41.0406Z" fill="#DD9683"/>
<path d="M30.4073 59.9968C30.2717 59.9986 30.1361 59.9996 30 59.9996C29.1691 59.9996 28.3462 59.965 27.5328 59.8974L27.5725 56.2449C27.5893 54.6862 27.1147 53.1635 26.2195 51.8876C25.9852 51.5535 25.7509 51.2131 25.5173 50.8667C23.3575 47.6654 21.6802 44.5972 20.7407 42.2725C20.2556 41.0721 21.4762 40.0373 22.5147 40.4417C23.683 43.1418 25.582 46.5495 27.9726 50.0929C28.4132 50.7461 28.8559 51.382 29.2977 51.9981C30.0613 53.0626 30.4686 54.3408 30.4544 55.6509L30.4073 59.9968ZM34.6328 50.9622C34.0732 49.6813 34.66 48.184 35.9408 47.6244C36.3955 47.4259 36.6029 46.8963 36.4043 46.4418C36.2058 45.9872 35.6762 45.7798 35.2217 45.9783C33.0332 46.9345 32.0305 49.4929 32.9868 51.6814C33.1854 52.1361 33.715 52.3435 34.1695 52.1449C34.6238 51.9462 34.8314 51.4166 34.6328 50.9622Z" fill="#D27D69"/>
<path d="M30.4398 37.1258C20.1878 37.1258 11.8769 28.8149 11.8769 18.5629C11.8769 8.3109 20.1878 0 30.4398 0C40.6917 0 49.0026 8.3109 49.0026 18.5629C49.0026 28.8149 40.6917 37.1258 30.4398 37.1258Z" fill="#FD7D43"/>
<path d="M14.3196 27.7737C12.7654 25.0593 11.8769 21.9149 11.8769 18.5629C11.8769 8.3109 20.1878 0 30.4398 0C33.7917 0 36.9362 0.888503 39.6505 2.44275C26.0576 3.3079 15.1848 14.1807 14.3196 27.7737Z" fill="#F16B38"/>
<path d="M33.9265 27.2444C34.4652 22.6357 33.2806 18.5022 30.5849 15.5278C25.3332 20.2715 21.307 26.3478 19.0449 33.2178C18.469 32.7695 17.9202 32.2878 17.4014 31.7758C17.6989 30.9273 18.0237 30.0863 18.3757 29.2535C20.5473 24.1146 23.6568 19.5007 27.6175 15.5399C28.1007 15.0566 28.5937 14.5861 29.0961 14.1285C26.6708 12.1909 23.5741 11.1726 20.1258 11.1726C19.4248 11.1726 18.709 11.2146 17.9817 11.2998C16.2545 11.5017 14.5349 11.9358 12.8612 12.5828C13.1523 11.7266 13.5043 10.8986 13.9119 10.1037C15.1769 9.72515 16.4604 9.45701 17.7488 9.30647C22.7398 8.72311 27.2632 9.95737 30.6328 12.7929C32.1783 11.5123 33.8052 10.3459 35.5073 9.29772C33.1434 6.49018 31.2721 3.35749 29.9377 0.00670659C30.1046 0.00227545 30.2719 0 30.4398 0C31.0214 0 31.5969 0.0268264 32.165 0.0791617C33.4594 3.06719 35.1953 5.8212 37.2898 8.25844C38.597 7.53796 39.945 6.88383 41.3311 6.29808C42.0671 5.98707 42.8093 5.69737 43.5576 5.42886C44.0734 5.94407 44.5589 6.48946 45.0116 7.06204C42.8213 7.80108 40.7131 8.71976 38.7043 9.80048C41.6028 12.7625 45.0684 15.1674 48.9235 16.8375C48.9758 17.4055 49.0026 17.9811 49.0026 18.5628C49.0026 18.7307 49.0004 18.898 48.9959 19.0648C44.7456 17.3723 40.8465 14.816 37.5165 11.4861C37.3032 11.2728 37.0932 11.0571 36.8862 10.8393C35.2116 11.8534 33.6147 12.9836 32.107 14.2184C35.1737 17.6236 36.525 22.2989 35.9198 27.4772C35.5363 30.7578 34.3919 34.0062 32.598 37.0014C31.8899 37.0834 31.1698 37.1256 30.4399 37.1256C30.3406 37.1256 30.2414 37.1248 30.1425 37.1232C32.2145 34.0593 33.5265 30.6666 33.9265 27.2444Z" fill="#C64B1A"/>
<path d="M30.3466 28.633C28.715 31.1437 26.0489 34.3576 22.7867 37.6173C22.0849 38.3186 21.3853 38.9923 20.6943 39.6341C20.0351 40.2463 19.5907 41.0535 19.4284 41.9383L16.6992 56.8194C12.2326 54.5439 8.42624 51.158 5.64397 47.0256L8.02397 39.1596C8.31487 38.1982 8.24612 37.1657 7.83798 36.2479C7.39091 35.2425 6.94936 34.1898 6.52049 33.1007C4.83055 28.8098 3.66876 24.7989 3.17475 21.8457C2.87942 20.0801 5.20073 19.1582 6.18912 20.6506C7.49942 22.6293 8.95642 25.3813 10.3464 28.5754C10.3494 27.5355 10.374 26.4602 10.4219 25.3598C10.6224 20.7582 11.1908 16.6258 11.9389 13.7275C12.3865 11.9937 14.8872 12.0924 15.1829 13.8584C15.6531 16.6666 15.8637 20.5754 15.7107 24.9137C15.8274 24.3767 15.9515 23.833 16.0828 23.284C17.1557 18.7989 18.5011 14.8458 19.788 12.1422C20.5591 10.5226 22.9886 11.1031 22.9433 12.8963C22.8677 15.881 22.2817 20.0003 21.2145 24.471C22.8192 22.1589 24.3862 20.1945 25.757 18.7491C26.9897 17.4493 29.1142 18.7632 28.517 20.4522C27.6841 22.8083 26.2659 25.8091 24.4204 29.0234C25.7291 27.9557 26.9585 27.0482 28.0539 26.3376C29.5589 25.3614 31.324 27.1291 30.3466 28.633Z" fill="#A95947"/>
<path d="M13.3172 12.4937C13.7125 13.8689 13.7184 17.0114 13.267 20.6197C12.6681 25.4076 11.4909 29.2025 10.6378 29.0958C10.3514 29.06 10.3465 28.5952 10.3465 28.5749C10.3503 27.554 10.3751 26.4381 10.4221 25.3593C10.6226 20.7576 11.1909 16.6253 11.9391 13.727C12.1317 12.9812 12.7039 12.5745 13.3172 12.4937ZM9.62614 32.6806C7.87021 28.2222 6.66303 24.0546 6.14962 20.986C6.12495 20.8384 6.11776 20.6964 6.12614 20.5611C5.10195 19.2014 2.88543 20.115 3.17489 21.8457C3.6689 24.7988 4.83069 28.8095 6.52051 33.1002C6.94938 34.1893 7.39093 35.2418 7.838 36.2473C8.24614 37.1651 8.31489 38.1976 8.02399 39.1591L5.64387 47.0251C6.32734 48.0402 7.07249 49.0102 7.87417 49.9297L11.3344 38.4942C11.5425 37.8063 11.4976 37.0653 11.2014 36.4106C10.6664 35.2284 10.1376 33.9794 9.62614 32.6806ZM20.4175 11.4258C20.1634 11.5816 19.9427 11.8175 19.7883 12.1417C18.5014 14.8453 17.156 18.7984 16.083 23.2835C15.9724 23.7464 15.8124 24.4255 15.712 24.88C15.6933 24.9646 15.4491 28.9072 16.2615 29.1212C17.1991 29.3683 18.806 25.354 19.8214 20.2818C20.6151 16.3161 20.8203 12.8431 20.4175 11.4258ZM28.1513 18.7408C27.5488 18.1285 26.4938 17.972 25.7573 18.7487C24.3865 20.194 22.8194 22.1584 21.2148 24.4706C21.2557 24.299 19.2271 28.5106 19.7406 28.855C20.4546 29.3339 23.2125 26.4737 25.9005 22.4665C26.7822 21.1518 27.547 19.8772 28.1513 18.7408ZM28.0543 26.337C26.9796 27.0343 25.7018 27.9814 24.4207 29.0229C22.6958 31.1208 21.7331 32.8805 22.1162 33.2181C22.5502 33.6005 24.6421 31.9358 26.7884 29.4999C27.8902 28.2495 28.7921 27.0391 29.3503 26.1052C28.9447 26.0021 28.4887 26.0551 28.0543 26.337Z" fill="#954D3B"/>
<path d="M14.3316 21.0625C14.3233 21.3675 14.0692 21.608 13.7643 21.5997L12.6598 21.5695C12.3547 21.5611 12.1143 21.3071 12.1225 21.0022C12.1309 20.6972 12.3849 20.4567 12.6898 20.465L13.7944 20.4952C14.0994 20.5034 14.3399 20.7574 14.3316 21.0625ZM13.8547 18.2859L12.7502 18.2558C12.4452 18.2474 12.1912 18.488 12.1829 18.7929C12.1745 19.0979 12.4151 19.3519 12.7201 19.3602L13.8247 19.3904C14.1297 19.3988 14.3837 19.1582 14.392 18.8531C14.4003 18.5483 14.1598 18.2943 13.8547 18.2859ZM7.8084 26.7898L6.77882 27.1909C6.49451 27.3016 6.35379 27.6219 6.46457 27.9062C6.57535 28.1905 6.89559 28.3312 7.1799 28.2204L8.20948 27.8194C8.49379 27.7086 8.63451 27.3883 8.52373 27.104C8.41295 26.8197 8.09271 26.679 7.8084 26.7898ZM24.3413 23.1543L25.2365 23.802C25.4837 23.9809 25.8291 23.9255 26.008 23.6783C26.187 23.4311 26.1315 23.0857 25.8843 22.9068L24.9891 22.259C24.7419 22.0801 24.3965 22.1355 24.2176 22.3827C24.0387 22.63 24.0941 22.9754 24.3413 23.1543ZM7.72157 25.0447C7.6108 24.7604 7.29056 24.6197 7.00624 24.7305L5.97666 25.1316C5.69235 25.2423 5.55163 25.5626 5.66241 25.8469C5.77319 26.1312 6.09343 26.2719 6.37774 26.1611L7.40732 25.7601C7.69163 25.6494 7.83235 25.3291 7.72157 25.0447ZM19.9637 19.9206L18.8891 19.6635C18.5924 19.5925 18.2943 19.7756 18.2233 20.0723C18.1522 20.3691 18.3352 20.6671 18.632 20.7382L19.7066 20.9953C20.0034 21.0663 20.3015 20.8832 20.3725 20.5865C20.4435 20.2899 20.2605 19.9916 19.9637 19.9206ZM27.1964 30.2307L26.4113 29.4532C26.1945 29.2385 25.8447 29.2403 25.63 29.4571C25.4152 29.674 25.417 30.0237 25.6338 30.2384L26.4189 31.0159C26.6357 31.2306 26.9855 31.2288 27.2003 31.012C27.415 30.7953 27.4133 30.4455 27.1964 30.2307ZM24.8563 31.0235C24.6395 30.8088 24.2897 30.8106 24.075 31.0274C23.8603 31.2441 23.8621 31.594 24.0788 31.8087L24.864 32.5862C25.0807 32.8009 25.4306 32.7991 25.6453 32.5823C25.86 32.3655 25.8582 32.0158 25.6415 31.801L24.8563 31.0235ZM20.4779 17.7713L19.4033 17.5143C19.1065 17.4433 18.8084 17.6263 18.7374 17.9231C18.6664 18.2198 18.8494 18.5179 19.1461 18.5889L20.2207 18.8459C20.5175 18.917 20.8156 18.734 20.8866 18.4372C20.9576 18.1404 20.7746 17.8422 20.4779 17.7713ZM24.7125 25.4687C24.8914 25.2215 24.8359 24.8761 24.5888 24.6972L23.6936 24.0494C23.4464 23.8706 23.101 23.9259 22.9221 24.1731C22.7431 24.4203 22.7986 24.7657 23.0458 24.9446L23.941 25.5924C24.1883 25.7713 24.5337 25.7159 24.7125 25.4687Z" fill="#7D402D"/>
<path d="M22.3157 12.7903C22.3122 12.9261 22.3072 13.0657 22.3004 13.2088C22.2792 13.656 21.8555 13.974 21.4201 13.8698L20.642 13.6837C20.2067 13.5795 19.9727 13.1043 20.1562 12.6959C20.2149 12.5652 20.2735 12.4384 20.3319 12.3158C20.8156 11.2996 22.3441 11.6652 22.3157 12.7903ZM27.8898 20.4499C28.4017 19.4476 27.1812 18.4573 26.3059 19.1646C26.2003 19.25 26.0926 19.339 25.9831 19.4316C25.6412 19.7206 25.6468 20.2503 25.9944 20.5323L26.6156 21.0364C26.9632 21.3184 27.4826 21.2148 27.695 20.8207C27.7631 20.6946 27.828 20.5709 27.8898 20.4499ZM28.3059 27.0601C28.1958 27.1398 28.0837 27.2231 27.9696 27.3098C27.6131 27.5804 27.5909 28.1098 27.9234 28.4095L28.5174 28.9455C28.8497 29.2453 29.3739 29.1689 29.6066 28.7865C29.6811 28.6641 29.7523 28.544 29.8204 28.4264C30.3841 27.4523 29.217 26.3996 28.3059 27.0601ZM14.4867 13.9578C14.1462 12.8851 12.582 13.0388 12.4567 14.1571C12.4416 14.2921 12.4276 14.4311 12.4147 14.5737C12.3747 15.0196 12.751 15.3924 13.1965 15.3487L13.9927 15.2705C14.4382 15.2268 14.7349 14.7879 14.6089 14.3583C14.5685 14.2209 14.5278 14.0873 14.4867 13.9578ZM5.73031 21.1409C5.16025 20.1706 3.66924 20.6675 3.7951 21.7858C3.81031 21.9208 3.82756 22.0595 3.84672 22.2014C3.9066 22.645 4.3563 22.925 4.78097 22.7834L5.54001 22.5305C5.96468 22.3889 6.15654 21.8952 5.93834 21.5043C5.86852 21.3792 5.79906 21.258 5.73031 21.1409Z" fill="#E1A595"/>
<path d="M56.1624 43.9556C54.0544 48.095 50.9928 51.6675 47.2671 54.3837L44.6817 47.1657C44.3783 46.3189 43.8091 45.5944 43.0595 45.0969C42.2738 44.5754 41.4743 44.0238 40.6683 43.4453C36.9211 40.756 33.7696 38.0158 31.7532 35.8021C30.5455 34.4764 32.001 32.4468 33.6436 33.1665C34.8399 33.6905 36.2003 34.3872 37.6649 35.2293C35.3235 32.3559 33.4382 29.6243 32.235 27.434C31.3721 25.8633 33.2564 24.2238 34.6837 25.3074C36.2703 26.5119 38.1343 28.1965 40.0918 30.2181C38.3149 25.9786 37.0697 22.0079 36.5122 19.0746C36.1774 17.3127 38.4805 16.3468 39.5034 17.82C41.211 20.2796 43.1788 23.9632 44.9637 28.2162C45.109 28.5621 45.2507 28.9065 45.3886 29.2485C45.4121 29.3066 45.4992 29.2805 45.4873 29.2189C44.7062 25.1783 44.3175 21.4983 44.3261 18.7736C44.3319 16.9799 46.7819 16.4723 47.5056 18.1138C48.7133 20.8529 49.9431 24.8392 50.8859 29.3484C51.1017 30.3804 51.2927 31.3933 51.4588 32.3776C51.464 32.408 51.5065 32.4087 51.514 32.3788C52.3613 29.0557 53.3407 26.1518 54.3012 24.015C55.035 22.3825 57.4744 22.9164 57.4689 24.7062C57.4595 27.7006 56.9622 31.8471 55.9889 36.3554C55.7418 37.4995 55.4765 38.6098 55.1981 39.6744C54.9438 40.6461 55.0431 41.6762 55.4858 42.5778L56.1624 43.9556Z" fill="#F3D6AC"/>
<path d="M49.5383 52.5493C48.8128 53.1974 48.0548 53.8099 47.2672 54.3842L44.6818 47.1661C44.3784 46.3193 43.8092 45.5947 43.0596 45.0972C42.2739 44.5758 41.4743 44.0242 40.6684 43.4457C36.9217 40.7569 33.7705 38.0169 31.7541 35.8035C31.0449 35.0249 31.254 34.0036 31.8801 33.4388C31.9538 33.5558 32.044 33.6691 32.1523 33.7768C34.4099 36.0225 37.9003 38.7683 42.0207 41.4285C42.9072 42.0008 43.7852 42.5449 44.647 43.0577C45.4692 43.5469 46.1118 44.2868 46.4783 45.1705L49.5383 52.5493ZM54.3009 24.0164C53.3405 26.1535 52.3609 29.0578 51.5138 32.3812C51.6248 33.8793 51.9132 34.8255 52.3581 34.8833C53.2866 35.0039 54.545 31.2092 55.1691 26.4074C55.322 25.2304 55.4226 24.102 55.4738 23.0675C54.9945 23.1584 54.5497 23.4629 54.3009 24.0164ZM45.0738 17.3857C44.6403 17.6582 44.3284 18.1322 44.3263 18.7695C44.3169 21.5984 44.6451 24.9947 45.4875 29.2193C46.3475 31.5538 47.3334 33.4928 47.9226 33.3535C48.8338 33.1381 48.6693 29.1435 47.5553 24.4311C46.8353 21.3856 45.8949 18.7859 45.0738 17.3857ZM42.3482 38.569C43.0705 37.9733 41.1585 34.462 38.0776 30.7265C36.005 28.2135 33.9316 26.2392 32.5764 25.3974C32.0516 25.871 31.8103 26.6613 32.2351 27.4346C33.4384 29.6249 35.3236 32.3565 37.6649 35.2298C37.5742 35.1775 41.7787 39.0388 42.3482 38.569ZM36.9355 17.6157C36.5912 17.9663 36.3983 18.4748 36.5126 19.076C37.0702 22.0092 38.3152 25.9794 40.0918 30.2184C40.0288 30.1534 42.4114 33.8781 43.0012 33.6341C43.8663 33.2763 43.0675 29.3589 41.217 24.8842C39.7225 21.2704 37.9991 18.3986 36.9355 17.6157Z" fill="#EABE8D"/>
<path d="M39.2306 18.4268C39.4777 18.8001 39.3238 19.3069 38.911 19.4802L38.1733 19.7898C37.7605 19.9631 37.291 19.7178 37.1976 19.28C37.1678 19.1398 37.1401 19.0029 37.1147 18.8694C36.9045 17.7638 38.3538 17.1556 38.9956 18.08C39.0733 18.1917 39.1516 18.3073 39.2306 18.4268ZM34.5706 26.0166C34.4476 25.9431 34.327 25.8727 34.209 25.8055C33.2306 25.2492 32.1867 26.4239 32.854 27.3301C32.9346 27.4396 33.0187 27.5511 33.1061 27.6645C33.3794 28.019 33.9088 28.0372 34.2062 27.7026L34.7377 27.1046C35.035 26.77 34.9547 26.2464 34.5706 26.0166ZM33.8854 34.1127C33.7588 34.0456 33.6346 33.9816 33.5132 33.9207C32.507 33.4164 31.526 34.644 32.2397 35.5141C32.326 35.6191 32.4157 35.7261 32.509 35.8348C32.8005 36.1746 33.33 36.1651 33.6096 35.8154L34.1091 35.1904C34.3886 34.8407 34.2811 34.322 33.8854 34.1127ZM47.0651 18.6226C46.7603 17.5392 45.192 17.6408 45.0296 18.7544C45.0099 18.8889 44.9914 19.0273 44.9739 19.1695C44.9191 19.6138 45.2829 19.9989 45.7296 19.97L46.5279 19.9183C46.9746 19.8893 47.2856 19.4606 47.174 19.027C47.1382 18.8882 47.1019 18.7534 47.0651 18.6226ZM56.8636 25.1673C56.8595 25.024 56.8541 24.8845 56.8472 24.7488C56.7904 23.6249 55.2387 23.3759 54.8332 24.4257C54.7842 24.5524 54.7353 24.6833 54.6867 24.818C54.5347 25.2391 54.8038 25.6953 55.2458 25.7662L56.0358 25.893C56.4778 25.9638 56.8761 25.6147 56.8636 25.1673Z" fill="#F8E6CC"/>
<path d="M42.332 25.3934C42.4501 25.6747 42.3178 25.9986 42.0364 26.1166L41.0175 26.5443C40.7362 26.6624 40.4124 26.53 40.2943 26.2486C40.1762 25.9673 40.3085 25.6435 40.59 25.5254L41.6089 25.0977C41.8902 24.9797 42.2139 25.1121 42.332 25.3934ZM41.4768 23.3557C41.3587 23.0744 41.0349 22.942 40.7536 23.06L39.7346 23.4877C39.4533 23.6057 39.321 23.9296 39.4391 24.2109C39.5572 24.4922 39.881 24.6247 40.1623 24.5066L41.1812 24.0789C41.4625 23.9609 41.5949 23.6371 41.4768 23.3557ZM48.5029 25.3236C48.4453 25.0239 48.1557 24.8277 47.8561 24.8853L46.7709 25.0938C46.4713 25.1514 46.275 25.4409 46.3326 25.7406C46.3902 26.0402 46.6798 26.2365 46.9794 26.1789L48.0646 25.9704C48.3642 25.9128 48.5604 25.6232 48.5029 25.3236ZM46.5624 24.0087L47.6476 23.8002C47.9472 23.7426 48.1435 23.453 48.0859 23.1534C48.0283 22.8538 47.7387 22.6576 47.4391 22.7151L46.3539 22.9236C46.0543 22.9812 45.858 23.2708 45.9156 23.5704C45.9731 23.8702 46.2628 24.0663 46.5624 24.0087ZM54.7778 30.5659L53.6968 30.3368C53.3984 30.2735 53.1051 30.4642 53.0417 30.7626C52.9785 31.0611 53.1691 31.3544 53.4676 31.4177L54.5485 31.6468C54.847 31.7101 55.1403 31.5194 55.2036 31.221C55.2669 30.9224 55.0762 30.6291 54.7778 30.5659ZM55.2361 28.4039L54.1551 28.1747C53.8567 28.1115 53.5634 28.3021 53.5 28.6006C53.4367 28.899 53.6275 29.1923 53.9259 29.2557L55.0069 29.4849C55.3053 29.5481 55.5986 29.3575 55.6619 29.059C55.7253 28.7606 55.5345 28.4673 55.2361 28.4039ZM37.583 31.7662L38.3616 30.9821C38.5766 30.7656 38.5754 30.4158 38.3588 30.2008C38.1423 29.9859 37.7925 29.9871 37.5775 30.2036L36.799 30.9877C36.584 31.2042 36.5852 31.554 36.8017 31.769C37.0182 31.9839 37.3681 31.9827 37.583 31.7662ZM35.2336 30.2118C35.4501 30.4268 35.7999 30.4256 36.0149 30.2091L36.7934 29.425C37.0084 29.2085 37.0072 28.8587 36.7907 28.6437C36.5742 28.4287 36.2243 28.4299 36.0094 28.6465L35.2308 29.4305C35.0158 29.6471 35.017 29.9969 35.2336 30.2118ZM38.3304 37.1513C38.0835 36.9721 37.738 37.0269 37.5588 37.2739L36.9098 38.1683C36.7307 38.4152 36.7855 38.7607 37.0325 38.9399C37.2794 39.119 37.6249 39.0642 37.8041 38.8172L38.4531 37.923C38.6324 37.6759 38.5774 37.3305 38.3304 37.1513ZM36.5418 35.8533C36.2949 35.6741 35.9494 35.729 35.7702 35.9759L35.1212 36.8702C34.9421 37.1171 34.9969 37.4626 35.2439 37.6418C35.4908 37.8209 35.8363 37.7661 36.0155 37.5192L36.6645 36.6248C36.8437 36.378 36.7888 36.0326 36.5418 35.8533Z" fill="#E3AC6E"/>
</g>
<defs>
<clipPath id="clip0_1949_1116">
<rect width="60" height="60" fill="white"/>
</clipPath>
</defs>
</svg>
