<svg width="60" height="60" viewBox="0 0 60 60" fill="none" xmlns="http://www.w3.org/2000/svg">
<g clip-path="url(#clip0_1949_1242)">
<path d="M60 30C60 41.6926 53.3106 51.8241 43.549 56.7735C40.642 58.2465 37.4609 59.2616 34.1045 59.7209C32.9009 59.8862 31.6751 59.9793 30.431 59.9964C30.2877 59.9988 30.1433 60 30 60C29.4049 60 28.8135 59.9829 28.227 59.9474C26.1086 59.8249 24.0503 59.482 22.0726 58.9409C20.8126 58.598 19.587 58.1732 18.3991 57.6748C17.6486 57.3601 16.9138 57.0148 16.1951 56.6413C13.9652 55.4842 11.8984 54.0539 10.0407 52.3972C8.70363 51.2046 7.47293 49.8943 6.36727 48.4826C5.56523 47.4589 4.82813 46.3801 4.1632 45.2561C2.59711 42.6087 1.42652 39.7005 0.731016 36.6124C0.252187 34.4854 0 32.2726 0 30C0 27.7274 0.252187 25.5146 0.731016 23.3878C1.42652 20.2997 2.59711 17.3914 4.1632 14.7442C4.82813 13.6201 5.56523 12.5413 6.36727 11.5177C7.47293 10.1058 8.70363 8.79562 10.0407 7.60301C10.8967 6.83895 11.7967 6.12387 12.7371 5.46258C17.618 2.02043 23.5726 0 30 0C46.5686 0 60 13.4314 60 30Z" fill="#F4A14E"/>
<path d="M0 29.9999C0 27.7273 0.252187 25.5145 0.731016 23.3877H9.30609C9.91465 23.3877 10.4657 23.6338 10.8649 24.033C11.2629 24.4322 11.5103 24.9832 11.5103 25.5919C11.5103 26.809 10.5233 27.7959 9.30621 27.7959H2.20406C0.986953 27.7958 0 28.7828 0 29.9999Z" fill="#F9AF6B"/>
<path d="M14.9388 34.4081C14.9388 35.6252 13.9519 36.6122 12.7348 36.6122H0.731016C0.252187 34.4854 0 32.2726 0 30C0 31.2171 0.986953 32.2041 2.20406 32.2041H12.7346C13.3432 32.2041 13.8942 32.4502 14.2935 32.8494C14.6914 33.2486 14.9388 33.7996 14.9388 34.4081Z" fill="#F9AF6B"/>
<path d="M60 30C60 31.6555 59.8653 33.2791 59.6081 34.8625C58.8072 39.7726 56.8151 44.2825 53.9375 48.0858C51.1922 51.7139 47.64 54.6993 43.549 56.7735C25.2795 50.6229 12.1224 33.3539 12.1224 13.0126C12.1224 10.4412 12.333 7.91871 12.7371 5.46246C17.6179 2.02043 23.5726 0 30 0C33.0967 0 36.0845 0.468984 38.8946 1.34086C46.9762 3.84621 53.5958 9.67476 57.1542 17.231C58.98 21.1053 60 25.4339 60 30Z" fill="#4BC999"/>
<path d="M10.0409 6.60027V52.3974C8.70376 51.2048 7.47306 49.8945 6.36739 48.4827C5.56536 47.4591 4.82825 46.3803 4.16333 45.2562V6.60027C4.16333 5.5252 5.0352 4.65332 6.11028 4.65332H8.09392C9.16899 4.65332 10.0409 5.5252 10.0409 6.60027Z" fill="#C69A6A"/>
<path d="M57.1543 17.2313H25.7204C25.1119 17.2313 24.5608 16.9852 24.1629 16.586C23.7637 16.1868 23.5175 15.6358 23.5175 15.0271C23.5175 13.81 24.5032 12.8231 25.7204 12.8231H32.4208C33.0294 12.8231 33.5804 12.577 33.9797 12.1777C34.3789 11.7785 34.625 11.2276 34.625 10.6189C34.625 9.4018 33.6381 8.41484 32.421 8.41484H30.5511C29.9426 8.41484 29.3915 8.16875 28.9923 7.76949C28.5943 7.37035 28.3469 6.81934 28.3469 6.21066C28.3469 4.99355 29.3339 4.0066 30.551 4.0066H36.7408C37.3494 4.0066 37.9004 3.76051 38.2997 3.36125C38.6988 2.96328 38.945 2.41227 38.945 1.80371C38.945 1.64457 38.9279 1.49023 38.8949 1.34082C46.9764 3.84641 53.5959 9.67496 57.1543 17.2313Z" fill="#5BD3A2"/>
<path d="M59.6082 34.8625C58.8073 39.7727 56.8151 44.2825 53.9376 48.0859H47.5054C46.8968 48.0859 46.3458 47.8398 45.9466 47.4405C45.5486 47.0414 45.3012 46.4904 45.3012 45.8817C45.3012 44.6646 46.2882 43.6776 47.5053 43.6776H48.1176C48.7261 43.6776 49.2771 43.4315 49.6764 43.0323C50.0744 42.6331 50.3217 42.0821 50.3217 41.4734C50.3217 40.2563 49.3348 39.2694 48.1177 39.2694H42.1102C41.5016 39.2694 40.9506 39.0233 40.5514 38.624C40.1534 38.2249 39.906 37.6739 39.906 37.0652C39.906 35.8481 40.893 34.8623 42.1101 34.8623H59.6082V34.8625Z" fill="#5BD3A2"/>
<path d="M44.122 24.2138V24.2136C44.122 22.9965 43.1353 22.0098 41.9182 22.0098H20.9803C19.7632 22.0098 18.7765 22.9965 18.7765 24.2136V24.2138C18.7765 25.4309 19.7632 26.4177 20.9803 26.4177H24.47C25.6872 26.4177 26.6739 27.4044 26.6739 28.6215V28.6217C26.6739 29.8388 27.6606 30.8255 28.8777 30.8255H46.3261C47.5432 30.8255 48.5299 29.8388 48.5299 28.6217V28.6215C48.5299 27.4044 47.5432 26.4177 46.3261 26.4177C45.1088 26.4177 44.122 25.4309 44.122 24.2138Z" fill="#5BD3A2"/>
<path d="M8.20407 4.65941C7.18044 4.71578 6.36739 5.56187 6.36739 6.60027V48.4827C5.56536 47.4591 4.82825 46.3803 4.16333 45.2562V6.60027C4.16333 5.5252 5.0352 4.65332 6.11028 4.65332H8.09392C8.13188 4.65332 8.16739 4.65695 8.20407 4.65941Z" fill="#B58657"/>
<path d="M22.0726 6.60027V58.9411C20.8126 58.5982 19.5869 58.1734 18.3991 57.675C17.6485 57.3604 16.9138 57.015 16.1951 56.6416V6.60027C16.1951 5.5252 17.0669 4.65332 18.142 4.65332H20.1257C21.2008 4.65332 22.0726 5.5252 22.0726 6.60027Z" fill="#C69A6A"/>
<path d="M20.2359 4.65941C19.2123 4.71578 18.3993 5.56187 18.3993 6.60027V57.6749C17.6487 57.3603 16.9139 57.0149 16.1952 56.6415V6.60027C16.1952 5.5252 17.0671 4.65332 18.1421 4.65332H20.1258C20.1625 4.65332 20.1991 4.65695 20.2359 4.65941Z" fill="#B58657"/>
<path d="M34.1045 6.60027V59.7211C32.9008 59.8865 31.6751 59.9795 30.431 59.9966C30.2877 59.9991 30.1433 60.0003 30 60.0003C29.4049 60.0003 28.8135 59.9832 28.2269 59.9477V6.60027C28.2269 5.5252 29.0988 4.65332 30.1739 4.65332H32.1575C33.2326 4.65332 34.1045 5.5252 34.1045 6.60027Z" fill="#C69A6A"/>
<path d="M32.2678 4.65941C31.2442 4.71578 30.4311 5.56187 30.4311 6.60027V59.9966C30.2877 59.9991 30.1433 60.0003 30 60.0003C29.4049 60.0003 28.8135 59.9832 28.2269 59.9477V6.60027C28.2269 5.5252 29.0988 4.65332 30.1739 4.65332H32.1575C32.1943 4.65332 32.231 4.65695 32.2678 4.65941Z" fill="#B58657"/>
<path d="M8.65314 20.3186C8.13471 20.3186 7.71436 19.8983 7.71436 19.3798V7.70637C7.71436 7.18793 8.13459 6.76758 8.65314 6.76758C9.17158 6.76758 9.59193 7.18781 9.59193 7.70637V19.3798C9.59182 19.8982 9.17158 20.3186 8.65314 20.3186Z" fill="#D3AA81"/>
<path d="M20.8326 20.3186C20.3142 20.3186 19.8938 19.8983 19.8938 19.3798V7.70637C19.8938 7.18793 20.314 6.76758 20.8326 6.76758C21.351 6.76758 21.7714 7.18781 21.7714 7.70637V19.3798C21.7713 19.8982 21.351 20.3186 20.8326 20.3186Z" fill="#D3AA81"/>
<path d="M32.5877 20.3186C32.0692 20.3186 31.6489 19.8983 31.6489 19.3798V7.70637C31.6489 7.18793 32.0691 6.76758 32.5877 6.76758C33.1061 6.76758 33.5264 7.18781 33.5264 7.70637V19.3798C33.5263 19.8982 33.1061 20.3186 32.5877 20.3186Z" fill="#D3AA81"/>
<path d="M59.2261 4.51102L47.5836 16.1522C46.9493 16.7877 46.6297 17.6191 46.6297 18.4506C46.6297 19.2845 46.9493 20.1171 47.5836 20.7514L44.122 24.213L42.9967 25.3396L41.5347 26.8004L40.4093 27.927L18.0343 50.3009C17.0487 51.2865 15.4519 51.2865 14.4662 50.3009L9.6981 45.5339C8.71361 44.5482 8.71243 42.9514 9.6981 41.9658L10.401 41.2629L12.5243 39.1396L18.1558 33.5081L20.2569 31.407L32.0731 19.5906L33.1996 18.4652L34.6604 17.0032L35.7858 15.8779L39.2474 12.4162C40.5184 13.6861 42.5768 13.6861 43.8478 12.4162L55.489 0.772617C56.0045 0.258398 56.6816 0 57.3564 0C58.0335 0 58.7107 0.258398 59.2262 0.772617C60.2571 1.80492 60.2571 3.47754 59.2261 4.51102Z" fill="#FFD15C"/>
<path d="M44.1221 24.213L42.9967 25.3395L34.6605 17.0033L35.7857 15.8779L44.1221 24.213Z" fill="#FF525D"/>
<path d="M41.5347 26.7999L40.4094 27.9264L32.0731 19.5901L33.1996 18.4648L41.5347 26.7999Z" fill="#FF525D"/>
<path d="M19.9126 37.5316C19.9126 40.5621 17.4551 43.0197 14.4245 43.0197C12.8339 43.0197 11.4025 42.3437 10.4009 41.2626L12.5242 39.1393L18.1556 33.5078C19.2367 34.5095 19.9126 35.9409 19.9126 37.5316Z" fill="#EDBB4C"/>
<path d="M21.5657 34.9095V34.9609C21.5657 37.9915 19.1081 40.449 16.0776 40.449C13.0457 40.449 10.5881 37.9915 10.5881 34.9609C10.5881 32.7384 11.9081 30.8257 13.8073 29.9625C14.4992 29.6479 15.2681 29.4727 16.0774 29.4727C19.091 29.4727 21.5375 31.9009 21.5657 34.9095Z" fill="#EF4152"/>
<path d="M21.5657 34.9095C20.8236 36.4829 19.2245 37.5715 17.3693 37.5715C14.8077 37.5715 12.7309 35.4948 12.7309 32.9331C12.7309 31.8029 13.135 30.767 13.8073 29.9625C14.4991 29.6479 15.2681 29.4727 16.0774 29.4727C19.091 29.4727 21.5375 31.9009 21.5657 34.9095Z" fill="#FF525D"/>
<path d="M59.2261 4.51102L47.5836 16.1522C46.9493 16.7877 46.6297 17.6191 46.6297 18.4506C46.6297 19.2845 46.9493 20.1171 47.5836 20.7514L39.2473 12.4164C40.5183 13.6862 42.5767 13.6862 43.8477 12.4164L55.4889 0.772734C56.0045 0.258398 56.6816 0 57.3564 0C58.0335 0 58.7107 0.258398 59.2262 0.772617C60.2571 1.80492 60.2571 3.47754 59.2261 4.51102Z" fill="#B58657"/>
<path d="M36.9479 27.0467C36.3023 26.4011 35.2558 26.4011 34.6103 27.0467L23.0518 38.6051C22.4062 39.2507 22.4062 40.2972 23.0518 40.9428C23.6974 41.5884 24.7439 41.5884 25.3895 40.9428L36.9479 29.3843C37.5934 28.7388 37.5934 27.6923 36.9479 27.0467Z" fill="#FFDC8D"/>
<path d="M18.3674 34.0132C19.0098 34.0132 19.5307 33.4923 19.5307 32.8498C19.5307 32.2074 19.0098 31.6865 18.3674 31.6865C17.7249 31.6865 17.204 32.2074 17.204 32.8498C17.204 33.4923 17.7249 34.0132 18.3674 34.0132Z" fill="#FF6E7C"/>
<path d="M16.4033 32.3137C16.8953 32.3137 17.2941 31.9149 17.2941 31.423C17.2941 30.931 16.8953 30.5322 16.4033 30.5322C15.9114 30.5322 15.5126 30.931 15.5126 31.423C15.5126 31.9149 15.9114 32.3137 16.4033 32.3137Z" fill="#FF6E7C"/>
<path d="M31.4159 2.31492H27.609C27.1873 1.47129 26.3175 0.890625 25.3102 0.890625C24.3028 0.890625 23.4331 1.47129 23.0112 2.31492H15.6839C15.262 1.47129 14.3923 0.890625 13.3849 0.890625C12.3776 0.890625 11.5078 1.47129 11.0859 2.31492H7.27934C6.63352 2.31492 6.11005 2.8384 6.11005 3.48422C6.11005 4.13004 6.63352 4.65352 7.27934 4.65352H11.1076C11.5375 5.47336 12.3953 6.0334 13.3852 6.0334C14.375 6.0334 15.233 5.47336 15.6627 4.65352H23.0326C23.4625 5.47336 24.3203 6.0334 25.3102 6.0334C26.3 6.0334 27.158 5.47336 27.5877 4.65352H31.416C32.0618 4.65352 32.5853 4.13004 32.5853 3.48422C32.5853 2.8384 32.0617 2.31492 31.4159 2.31492Z" fill="#C69A6A"/>
<path d="M31.4159 3.26738H27.5877C27.1579 4.08723 26.3 4.64727 25.3102 4.64727C24.3203 4.64727 23.4624 4.08723 23.0326 3.26738H15.6626C15.2327 4.08723 14.3749 4.64727 13.385 4.64727C12.3952 4.64727 11.5372 4.08723 11.1075 3.26738H7.27934C6.89321 3.26738 6.55196 3.07941 6.33903 2.79102C6.19571 2.98508 6.11005 3.22426 6.11005 3.48395C6.11005 4.12977 6.63352 4.65324 7.27934 4.65324H11.1076C11.5375 5.47309 12.3953 6.03313 13.3852 6.03313C14.375 6.03313 15.233 5.47309 15.6627 4.65324H23.0326C23.4625 5.47309 24.3203 6.03313 25.3102 6.03313C26.3 6.03313 27.158 5.47309 27.5877 4.65324H31.416C32.0618 4.65324 32.5853 4.12977 32.5853 3.48395C32.5853 3.22426 32.4996 2.98508 32.3563 2.79102C32.1434 3.07941 31.802 3.26738 31.4159 3.26738Z" fill="#B58657"/>
<path d="M13.9054 3.59566C14.4283 3.59566 14.8521 3.17179 14.8521 2.64891C14.8521 2.12603 14.4283 1.70215 13.9054 1.70215C13.3825 1.70215 12.9586 2.12603 12.9586 2.64891C12.9586 3.17179 13.3825 3.59566 13.9054 3.59566Z" fill="#D3AA81"/>
<path d="M25.9996 3.59566C26.5225 3.59566 26.9464 3.17179 26.9464 2.64891C26.9464 2.12603 26.5225 1.70215 25.9996 1.70215C25.4767 1.70215 25.0529 2.12603 25.0529 2.64891C25.0529 3.17179 25.4767 3.59566 25.9996 3.59566Z" fill="#D3AA81"/>
</g>
<defs>
<clipPath id="clip0_1949_1242">
<rect width="60" height="60" fill="white"/>
</clipPath>
</defs>
</svg>
