<svg width="20" height="16" viewBox="0 0 20 16" fill="white" xmlns="http://www.w3.org/2000/svg">
    <path fill-rule="evenodd" clip-rule="evenodd" d="M8.08705 2.94048e-07H11.9129C13.6225 -1.42018e-05 14.9766 -2.57492e-05 16.0363 0.140009C17.1269 0.284126 18.0097 0.587776 18.7058 1.27199C19.402 1.95621 19.7109 2.82382 19.8575 3.89575C20 4.93732 20 6.26819 20 7.94842V8.05158C20 9.73182 20 11.0627 19.8575 12.1042C19.7109 13.1762 19.402 14.0438 18.7058 14.728C18.0097 15.4122 17.1269 15.7159 16.0363 15.86C14.9766 16 13.6225 16 11.9129 16H8.08706C6.37751 16 5.02343 16 3.9637 15.86C2.87307 15.7159 1.99033 15.4122 1.29418 14.728C0.598028 14.0438 0.289082 13.1762 0.142451 12.1042C-2.61983e-05 11.0627 -1.44495e-05 9.73182 2.99177e-07 8.05158V7.94842C-1.44495e-05 6.26818 -2.61983e-05 4.93732 0.142451 3.89575C0.289082 2.82382 0.598028 1.95621 1.29418 1.27199C1.99033 0.587776 2.87307 0.284126 3.9637 0.140009C5.02343 -2.57492e-05 6.37751 -1.42018e-05 8.08705 2.94048e-07ZM4.14963 1.49921C3.21373 1.62288 2.67452 1.85481 2.28084 2.24174C1.88716 2.62867 1.65119 3.15864 1.52536 4.07849C1.39683 5.01807 1.39535 6.25662 1.39535 8C1.39535 9.74338 1.39683 10.9819 1.52536 11.9215C1.65119 12.8414 1.88716 13.3713 2.28084 13.7583C2.67452 14.1452 3.21373 14.3771 4.14963 14.5008C5.10559 14.6271 6.36575 14.6286 8.13953 14.6286H11.8605C13.6343 14.6286 14.8944 14.6271 15.8504 14.5008C16.7863 14.3771 17.3255 14.1452 17.7192 13.7583C18.1128 13.3713 18.3488 12.8414 18.4746 11.9215C18.6032 10.9819 18.6046 9.74338 18.6046 8C18.6046 6.25662 18.6032 5.01807 18.4746 4.07849C18.3488 3.15864 18.1128 2.62867 17.7192 2.24174C17.3255 1.85481 16.7863 1.62288 15.8504 1.49921C14.8944 1.37289 13.6343 1.37143 11.8605 1.37143H8.13953C6.36575 1.37143 5.10559 1.37289 4.14963 1.49921ZM3.88264 3.90387C4.12931 3.61294 4.56924 3.57363 4.86524 3.81608L6.87352 5.46095C7.74139 6.17178 8.34393 6.66369 8.85263 6.98526C9.34506 7.29654 9.679 7.40103 10 7.40103C10.321 7.40103 10.6549 7.29654 11.1474 6.98526C11.6561 6.66369 12.2586 6.17178 13.1265 5.46095L15.1348 3.81608C15.4308 3.57363 15.8707 3.61294 16.1174 3.90387C16.364 4.19481 16.324 4.62719 16.028 4.86964L13.9848 6.54315C13.1603 7.2185 12.492 7.76587 11.9022 8.13872C11.2877 8.52711 10.6894 8.77246 10 8.77246C9.31063 8.77246 8.71225 8.52711 8.09784 8.13872C7.50802 7.76587 6.83973 7.2185 6.01522 6.54316L3.97196 4.86964C3.67596 4.62719 3.63596 4.19481 3.88264 3.90387Z" fill="white"/>
</svg>
