<svg width="60" height="60" viewBox="0 0 60 60" fill="none" xmlns="http://www.w3.org/2000/svg">
<g clip-path="url(#clip0_1949_1216)">
<path d="M43.6371 56.7285C39.6134 58.7856 35.0639 59.9607 30.2435 59.9991C13.7079 60.1305 -0.000117187 46.536 7.51357e-10 29.9998C0.000117188 13.4313 13.4316 0 30 0C41.2178 0 50.9975 6.15703 56.1443 15.2761C56.4019 15.7324 56.2372 16.3085 55.7854 16.5739C46.9125 21.7849 40.956 31.4273 40.956 42.461C40.956 47.1878 42.0491 51.6592 43.9964 55.6364C44.1932 56.0381 44.0353 56.5248 43.6371 56.7285Z" fill="#44BFD7"/>
<path d="M52.2283 27.9019C52.2283 40.6257 41.9135 50.9405 29.1897 50.9405C16.4658 50.9405 6.15106 40.6257 6.15106 27.9019C6.15106 15.178 16.4658 4.86328 29.1897 4.86328C41.9135 4.86328 52.2283 15.178 52.2283 27.9019Z" fill="#7CD2E3"/>
<path d="M24.0087 8.64258H25.7665V26.9438C25.7665 27.4291 25.373 27.8227 24.8876 27.8227C24.4022 27.8227 24.0087 27.4291 24.0087 26.9438V8.64258ZM31.9475 25.5469C31.9475 26.0323 32.3411 26.4258 32.8264 26.4258C33.3118 26.4258 33.7053 26.0323 33.7053 25.5469V4.86328H31.9475V25.5469ZM39.8864 29.3262C39.8864 29.8116 40.2799 30.2051 40.7653 30.2051C41.2507 30.2051 41.6442 29.8116 41.6442 29.3262V8.64258H39.8864V29.3262ZM47.8252 4.86328V25.5469C47.8252 26.0323 48.2187 26.4258 48.7041 26.4258C49.1895 26.4258 49.583 26.0323 49.583 25.5469V4.86328H47.8252Z" fill="#E7E7E7"/>
<path d="M47.3879 6.80918C47.1903 5.91105 46.853 4.49754 46.4197 3.13769C45.9401 1.63242 46.9505 0.0452344 48.4278 0.0009375C48.4387 0.000585937 48.4497 0.000351562 48.4607 0H48.9476C48.9586 0.000234375 48.9695 0.000585937 48.9805 0.0009375C50.4579 0.0451172 51.4682 1.6323 50.9885 3.13769C50.5553 4.49754 50.2179 5.91105 50.0203 6.80918C49.9 7.35598 49.3474 7.75101 48.7042 7.75101C48.0608 7.75113 47.5083 7.35598 47.3879 6.80918ZM40.7653 10.6725C41.4086 10.6725 41.9611 10.2773 42.0815 9.73066C42.2792 8.83254 42.6164 7.41902 43.0497 6.05918C43.5293 4.55391 42.5189 2.96672 41.0417 2.92242C41.0308 2.92207 41.0197 2.92184 41.0087 2.92148H40.5218C40.5108 2.92172 40.4999 2.92207 40.4889 2.92242C39.0115 2.9666 38.0012 4.55379 38.4809 6.05918C38.9141 7.41902 39.2515 8.83254 39.4491 9.73066C39.5694 10.2773 40.1221 10.6725 40.7653 10.6725ZM32.8265 7.75113C33.4697 7.75113 34.0222 7.35598 34.1426 6.8093C34.3403 5.91117 34.6776 4.49766 35.1108 3.13781C35.5904 1.63254 34.5801 0.0453516 33.1028 0.00105469C33.0919 0.000703125 33.0809 0.00046875 33.0699 0.000117187H32.5829C32.5719 0.000351562 32.561 0.000703125 32.55 0.00105469C31.0726 0.0452344 30.0624 1.63242 30.542 3.13781C30.9752 4.49766 31.3126 5.91117 31.5102 6.8093C31.6307 7.35598 32.1832 7.75113 32.8265 7.75113ZM24.8876 10.6725C25.5308 10.6725 26.0834 10.2773 26.2037 9.73066C26.4014 8.83254 26.7387 7.41902 27.1719 6.05918C27.6516 4.55391 26.6412 2.96672 25.1639 2.92242C25.153 2.92207 25.142 2.92184 25.131 2.92148H24.6441C24.6331 2.92172 24.6222 2.92207 24.6111 2.92242C23.1338 2.9666 22.1235 4.55379 22.6031 6.05918C23.0364 7.41902 23.3738 8.83254 23.5713 9.73066C23.6918 10.2773 24.2443 10.6725 24.8876 10.6725Z" fill="#F76937"/>
<path d="M40.3563 46.6113V58.1644C39.2154 58.584 38.0419 58.9364 36.8407 59.2165V46.6113H40.3563ZM21.3719 58.7407C22.5165 59.0838 23.6899 59.3605 24.8876 59.5661V46.6113H21.3719V58.7407Z" fill="#232E7A"/>
<path d="M39.8438 23.0196V52.3591C39.8438 54.8315 37.8394 56.8359 35.367 56.8359H9.81129C6.52852 56.8359 3.86719 54.1745 3.86719 50.8918V24.4871C3.86719 21.2042 6.52852 18.543 9.81129 18.543H35.3668C37.8394 18.5429 39.8438 20.5472 39.8438 23.0196Z" fill="#2B3894"/>
<path d="M48.6598 53.4921C47.0423 54.7786 45.289 55.9015 43.4248 56.8359H35.0066C31.7238 56.8359 29.0625 54.1746 29.0625 50.8918V24.4871C29.0625 21.2042 31.7238 18.543 35.0066 18.543H54.7363C51.4534 18.543 48.7922 21.2043 48.7922 24.4871V50.8918C48.7922 51.4273 48.863 51.9462 48.9957 52.4398C49.1003 52.828 48.9745 53.2418 48.6598 53.4921Z" fill="#3342AE"/>
<path d="M45.6558 21.2332V47.6379C45.6558 50.9207 42.9945 53.582 39.7117 53.582H9.81129C6.52852 53.5821 3.86719 50.9207 3.86719 47.6379V21.2332C3.86719 17.9503 6.52852 15.2891 9.81129 15.2891H39.7116C42.9945 15.2891 45.6558 17.9503 45.6558 21.2332Z" fill="#3D4EC6"/>
<path d="M53.4984 47.435C53.4984 48.2439 53.2091 49.0271 52.6794 49.6384C51.4494 51.0575 50.0885 52.3602 48.6153 53.5274H28.9227C26.981 53.5274 25.407 51.9534 25.407 50.0118V18.75C25.407 16.8083 26.981 15.2344 28.9227 15.2344H56.1206C56.829 16.4849 57.4502 17.7912 57.9759 19.1453C58.2478 19.8456 57.014 21.2832 57.014 21.2832C55.0724 21.2832 53.4984 22.8572 53.4984 24.7989V47.435Z" fill="#5766CE"/>
<path d="M8.20312 41.4668C7.5559 41.4668 7.03125 40.9422 7.03125 40.2949V28.5762C7.03125 27.9289 7.5559 27.4043 8.20312 27.4043C8.85035 27.4043 9.375 27.9289 9.375 28.5762V40.2949C9.375 40.9422 8.85035 41.4668 8.20312 41.4668Z" fill="#2B3894"/>
<path d="M40.7653 22.6611V46.2811C40.7653 48.2228 39.1913 49.7967 37.2497 49.7967H14.9979C13.0562 49.7967 11.4822 48.2228 11.4822 46.2811V22.6611C11.4822 20.7195 13.0562 19.1455 14.9979 19.1455H37.2495C39.1912 19.1455 40.7653 20.7195 40.7653 22.6611Z" fill="#6DC54A"/>
<path d="M36.5988 19.1455H57.976C59.2829 22.5116 60 26.1722 60 30.0002C60 37.5859 57.1845 44.514 52.5416 49.7967H36.5988C28.1347 49.7967 21.2733 42.9352 21.2733 34.4712C21.2731 26.007 28.1347 19.1455 36.5988 19.1455Z" fill="#82CD64"/>
<path d="M8.34927 36.5437H8.05701C7.40978 36.5437 6.88513 36.0191 6.88513 35.3719V33.498C6.88513 32.8508 7.40978 32.3262 8.05701 32.3262H8.34927C8.9965 32.3262 9.52115 32.8508 9.52115 33.498V35.3719C9.52115 36.0191 8.9965 36.5437 8.34927 36.5437Z" fill="#97D57E"/>
<path d="M57.9134 41.0149C57.6901 41.5805 57.45 42.1379 57.1937 42.6861C54.8434 40.9208 53.3203 38.1107 53.3203 34.9516C53.3203 30.7687 55.9904 27.1979 59.7157 25.8538C59.7984 26.452 59.8634 27.0559 59.9103 27.6648C57.0732 28.8678 55.0781 31.681 55.0781 34.9516C55.0781 37.3836 56.1813 39.5627 57.9134 41.0149ZM11.4822 25.3232V27.09C15.4318 27.5285 18.5135 30.887 18.5135 34.9516C18.5135 39.0163 15.4318 42.3746 11.4822 42.8132V44.58C16.4028 44.1345 20.2713 39.9863 20.2713 34.9516C20.2713 29.9169 16.4028 25.7688 11.4822 25.3232Z" fill="#97D57E"/>
<path d="M24.0087 31.332H25.7665V49.8046H24.0087V31.332ZM31.9475 49.8046H33.7053V31.332H31.9475V49.8046ZM39.8864 49.8046H41.6442V31.332H39.8864V49.8046ZM47.8252 31.332V49.8046H49.583V31.332H47.8252Z" fill="#CECECE"/>
<path d="M24.0087 19.1455H25.7665V37.4467C25.7665 37.9321 25.373 38.3256 24.8876 38.3256C24.4022 38.3256 24.0087 37.9321 24.0087 37.4467V19.1455ZM31.9475 39.8291C31.9475 40.3145 32.3411 40.708 32.8264 40.708C33.3118 40.708 33.7053 40.3145 33.7053 39.8291V19.1455H31.9475V39.8291ZM39.8864 38.8479C39.8864 39.3333 40.2799 39.7268 40.7653 39.7268C41.2507 39.7268 41.6442 39.3333 41.6442 38.8479V19.1455H39.8864V38.8479ZM47.8252 19.1455V39.8291C47.8252 40.3145 48.2187 40.708 48.7041 40.708C49.1895 40.708 49.583 40.3145 49.583 39.8291V19.1455H47.8252Z" fill="#E7E7E7"/>
<path d="M40.7653 30.8094C39.9164 30.8094 39.2281 32.0936 39.2281 33.6776C39.2281 35.2616 39.9164 36.5457 40.7653 36.5457C41.6142 36.5457 42.3024 35.2616 42.3024 33.6776C42.3024 32.0934 41.6142 30.8094 40.7653 30.8094ZM42.3024 23.6543C42.3024 25.2383 41.6142 26.5225 40.7653 26.5225C39.9164 26.5225 39.2281 25.2383 39.2281 23.6543C39.2281 22.0703 39.9164 20.7861 40.7653 20.7861C41.6142 20.7861 42.3024 22.0703 42.3024 23.6543ZM42.3024 43.7009C42.3024 45.2849 41.6142 46.569 40.7653 46.569C39.9164 46.569 39.2281 45.2849 39.2281 43.7009C39.2281 42.1168 39.9164 40.8327 40.7653 40.8327C41.6142 40.8327 42.3024 42.1167 42.3024 43.7009ZM24.8876 30.8094C24.0386 30.8094 23.3504 32.0936 23.3504 33.6776C23.3504 35.2616 24.0386 36.5457 24.8876 36.5457C25.7365 36.5457 26.4247 35.2616 26.4247 33.6776C26.4247 32.0934 25.7366 30.8094 24.8876 30.8094ZM26.4247 23.6543C26.4247 25.2383 25.7365 26.5225 24.8876 26.5225C24.0386 26.5225 23.3504 25.2383 23.3504 23.6543C23.3504 22.0703 24.0386 20.7861 24.8876 20.7861C25.7366 20.7861 26.4247 22.0703 26.4247 23.6543ZM26.4247 43.7009C26.4247 45.2849 25.7365 46.569 24.8876 46.569C24.0386 46.569 23.3504 45.2849 23.3504 43.7009C23.3504 42.1168 24.0386 40.8327 24.8876 40.8327C25.7366 40.8327 26.4247 42.1167 26.4247 43.7009Z" fill="#FFEA06"/>
<path d="M40.7653 30.8094C39.9942 30.8094 39.3557 31.8689 39.2452 33.2503C39.6196 33.8329 40.1619 34.1991 40.7653 34.1991C41.3687 34.1991 41.9111 33.8329 42.2855 33.2503C42.1749 31.8689 41.5364 30.8094 40.7653 30.8094ZM40.7653 24.1758C41.3687 24.1758 41.9111 23.8096 42.2855 23.227C42.1749 21.8456 41.5364 20.7861 40.7653 20.7861C39.9942 20.7861 39.3557 21.8456 39.2452 23.227C39.6196 23.8095 40.1619 24.1758 40.7653 24.1758ZM40.7653 40.8326C39.9942 40.8326 39.3557 41.8921 39.2452 43.2735C39.6196 43.856 40.1619 44.2222 40.7653 44.2222C41.3687 44.2222 41.9111 43.856 42.2855 43.2735C42.1749 41.8921 41.5364 40.8326 40.7653 40.8326ZM24.8876 30.8094C24.1165 30.8094 23.4779 31.8689 23.3674 33.2503C23.7418 33.8329 24.2842 34.1991 24.8876 34.1991C25.491 34.1991 26.0333 33.8329 26.4077 33.2503C26.2972 31.8689 25.6588 30.8094 24.8876 30.8094ZM24.8876 24.1758C25.491 24.1758 26.0333 23.8096 26.4077 23.227C26.2971 21.8456 25.6587 20.7861 24.8876 20.7861C24.1165 20.7861 23.4779 21.8456 23.3674 23.227C23.7418 23.8095 24.2842 24.1758 24.8876 24.1758ZM24.8876 40.8326C24.1165 40.8326 23.4779 41.8921 23.3674 43.2735C23.7418 43.856 24.2842 44.2222 24.8876 44.2222C25.491 44.2222 26.0333 43.856 26.4077 43.2735C26.2972 41.8921 25.6588 40.8326 24.8876 40.8326Z" fill="#FFF36C"/>
<path d="M34.3636 36.5457C34.3636 38.1298 33.6754 39.4139 32.8265 39.4139C31.9775 39.4139 31.2893 38.1298 31.2893 36.5457C31.2893 34.9617 31.9775 33.6776 32.8265 33.6776C33.6754 33.6776 34.3636 34.9617 34.3636 36.5457ZM32.8265 23.6543C31.9775 23.6543 31.2893 24.9384 31.2893 26.5225C31.2893 28.1065 31.9775 29.3906 32.8265 29.3906C33.6754 29.3906 34.3636 28.1065 34.3636 26.5225C34.3636 24.9383 33.6754 23.6543 32.8265 23.6543ZM32.8265 43.7009C31.9775 43.7009 31.2893 44.985 31.2893 46.569C31.2893 48.153 31.9775 49.4372 32.8265 49.4372C33.6754 49.4372 34.3636 48.153 34.3636 46.569C34.3636 44.985 33.6754 43.7009 32.8265 43.7009ZM48.7041 33.6776C47.8552 33.6776 47.1669 34.9617 47.1669 36.5457C47.1669 38.1298 47.8552 39.4139 48.7041 39.4139C49.553 39.4139 50.2412 38.1298 50.2412 36.5457C50.2412 34.9617 49.5531 33.6776 48.7041 33.6776ZM48.7041 29.3906C49.553 29.3906 50.2412 28.1065 50.2412 26.5225C50.2412 24.9384 49.553 23.6543 48.7041 23.6543C47.8552 23.6543 47.1669 24.9384 47.1669 26.5225C47.1669 28.1065 47.8552 29.3906 48.7041 29.3906ZM48.7041 43.7009C47.8552 43.7009 47.1669 44.985 47.1669 46.569C47.1669 48.153 47.8552 49.4372 48.7041 49.4372C49.553 49.4372 50.2412 48.153 50.2412 46.569C50.2412 44.985 49.5531 43.7009 48.7041 43.7009Z" fill="#EA552D"/>
<path d="M34.3466 36.1184C33.9722 36.7009 33.4298 37.0671 32.8264 37.0671C32.223 37.0671 31.6807 36.7009 31.3063 36.1184C31.4169 34.737 32.0553 33.6775 32.8264 33.6775C33.5975 33.6775 34.236 34.7371 34.3466 36.1184ZM32.8264 23.6543C32.0553 23.6543 31.4168 24.7138 31.3063 26.0952C31.6807 26.6777 32.223 27.0439 32.8264 27.0439C33.4298 27.0439 33.9722 26.6777 34.3466 26.0952C34.236 24.7138 33.5975 23.6543 32.8264 23.6543ZM32.8264 43.7009C32.0553 43.7009 31.4168 44.7604 31.3063 46.1418C31.6807 46.7243 32.223 47.0905 32.8264 47.0905C33.4298 47.0905 33.9722 46.7243 34.3466 46.1418C34.236 44.7604 33.5975 43.7009 32.8264 43.7009ZM48.704 33.6775C47.933 33.6775 47.2944 34.737 47.1839 36.1184C47.5583 36.7009 48.1006 37.0671 48.704 37.0671C49.3074 37.0671 49.8498 36.7009 50.2242 36.1184C50.1137 34.7371 49.4751 33.6775 48.704 33.6775ZM48.704 27.0439C49.3074 27.0439 49.8498 26.6777 50.2242 26.0952C50.1136 24.7138 49.4751 23.6543 48.704 23.6543C47.933 23.6543 47.2944 24.7138 47.1839 26.0952C47.5583 26.6776 48.1006 27.0439 48.704 27.0439ZM48.704 43.7009C47.933 43.7009 47.2944 44.7604 47.1839 46.1418C47.5583 46.7243 48.1006 47.0905 48.704 47.0905C49.3074 47.0905 49.8498 46.7243 50.2242 46.1418C50.1137 44.7604 49.4751 43.7009 48.704 43.7009Z" fill="#F76937"/>
<path d="M18.75 40.4297C18.75 42.0477 17.4383 43.3594 15.8203 43.3594C14.2023 43.3594 12.8906 42.0477 12.8906 40.4297C12.8906 38.8117 14.2023 37.5 15.8203 37.5C17.4383 37.5 18.75 38.8117 18.75 40.4297Z" fill="#E7E7E7"/>
<path d="M18.75 40.4297C18.75 40.8595 18.6574 41.2678 18.4911 41.6357C18.1234 41.802 17.7151 41.8945 17.2852 41.8945C15.6671 41.8945 14.3555 40.5829 14.3555 38.9648C14.3555 38.535 14.448 38.1267 14.6143 37.7589C14.9822 37.5926 15.3905 37.5 15.8203 37.5C17.4383 37.5 18.75 38.8117 18.75 40.4297Z" fill="#FFF5F5"/>
<path d="M26.7088 48.2592C26.7123 48.5828 26.4529 48.848 26.1293 48.8516C26.0794 48.8522 26.029 48.8524 25.9792 48.8524C22.4636 48.8524 19.1742 47.4919 17.3663 45.2819C17.1614 45.0315 17.1982 44.6624 17.4488 44.4574C17.6992 44.2525 18.0685 44.2895 18.2733 44.5399C19.887 46.5122 22.8941 47.7164 26.1165 47.6797C26.4362 47.6759 26.7053 47.9357 26.7088 48.2592ZM21.6143 44.974C21.6893 44.974 21.7647 44.9723 21.8404 44.9689C22.1637 44.9546 22.4141 44.6809 22.3998 44.3577C22.3854 44.0343 22.1088 43.7834 21.7886 43.7982C20.8333 43.8403 19.9384 43.5246 19.4563 42.9735C19.243 42.73 18.8728 42.7053 18.6294 42.9185C18.3859 43.1317 18.3613 43.5019 18.5744 43.7453C19.2551 44.5229 20.379 44.974 21.6143 44.974Z" fill="white"/>
</g>
<defs>
<clipPath id="clip0_1949_1216">
<rect width="60" height="60" fill="white"/>
</clipPath>
</defs>
</svg>
