<svg width="60" height="60" viewBox="0 0 60 60" fill="none" xmlns="http://www.w3.org/2000/svg">
<mask id="mask0_1949_1084" style="mask-type:luminance" maskUnits="userSpaceOnUse" x="0" y="0" width="60" height="60">
<path d="M0 7.62939e-06H60V60H0V7.62939e-06Z" fill="white"/>
</mask>
<g mask="url(#mask0_1949_1084)">
<path d="M30 2.57813C14.1434 2.57813 1.28906 15.4324 1.28906 31.2891C1.28906 33.7097 1.59012 36.0599 2.15414 38.3055L4.50551 39.7664L3.87586 43.213C4.18289 43.8846 4.5157 44.5419 4.87184 45.1845L10.2552 49.7448L14.4899 55.4537C16.9187 57.0158 19.5988 58.2202 22.4553 58.9962L26.6065 58.5962L28.1421 59.9386C28.7565 59.9779 29.3756 60 30 60C45.8566 60 58.7109 47.1457 58.7109 31.2891C58.7109 15.4324 45.8566 2.57813 30 2.57813Z" fill="#D7DBE2"/>
<path d="M43.7858 40.9802C42.8704 40.0649 41.3864 40.0649 40.4711 40.9802L22.4553 58.9961C24.2849 59.4932 26.1867 59.8136 28.1421 59.9385L43.7858 44.2948C44.7011 43.3795 44.7011 41.8956 43.7858 40.9802Z" fill="#E6EBF4"/>
<path d="M26.2076 17.5665C25.2924 16.6512 23.8083 16.6512 22.8931 17.5665L2.15417 38.3054C2.58156 40.0065 3.16023 41.6474 3.87589 43.2129L26.2076 20.8811C27.123 19.9658 27.123 18.4819 26.2076 17.5665Z" fill="#E6EBF4"/>
<path d="M30.9551 25.7305L27.6406 22.416L4.87177 45.1848C7.18118 49.3521 10.4957 52.8851 14.4899 55.4541L37.5843 32.3597L34.2698 29.0452L13.9263 49.3886C13.011 50.3038 11.527 50.3038 10.6117 49.3886C9.69637 48.4732 9.69637 46.9893 10.6117 46.0741L30.9551 25.7305Z" fill="#E6EBF4"/>
<path d="M17.5358 45.9756C21.2256 49.6652 33.1901 43.6831 44.2594 32.6137C55.3285 21.5446 61.3107 9.58018 57.621 5.8903L52.8204 1.08984L12.7352 41.1749L17.5358 45.9756Z" fill="#ED435C"/>
<path d="M29.4122 36.2506L23.5359 30.3744L12.7352 41.1751L17.5358 45.9758C19.9966 48.4365 26.1382 46.5944 33.2396 41.8114C31.9783 42.3747 30.4472 42.1396 29.4122 41.1048C28.0718 39.7643 28.0718 37.591 29.4122 36.2506Z" fill="#DA2F3C"/>
<path d="M52.8204 1.0896C56.5101 4.77925 50.528 16.7437 39.4586 27.813C28.3894 38.8822 16.4249 44.8645 12.7352 41.1748C9.04553 37.485 15.0277 25.5206 26.0969 14.4513C37.1662 3.38202 49.1307 -2.60016 52.8204 1.0896Z" fill="#DA2F3C"/>
<path d="M52.6974 9.42034C44.1766 21.2439 34.098 22.4523 34.098 22.4523L26.0969 14.4513C15.0277 25.5206 9.04539 37.485 12.7352 41.1748C16.4249 44.8645 28.3894 38.8822 39.4586 27.813C45.8863 21.3854 50.598 14.6563 52.6974 9.42034Z" fill="#C30C30"/>
<path d="M43.6993 3.24999C46.3505 5.90136 42.0519 14.4986 34.098 22.4524C26.1441 30.4064 17.5469 34.7051 14.8955 32.0537C12.2442 29.4025 16.5428 20.8053 24.4968 12.8513C32.4507 4.89741 41.0479 0.59874 43.6993 3.24999Z" fill="#ED435C"/>
<path d="M24.4968 12.8513C16.5428 20.8053 12.2442 29.4025 14.8955 32.0537C17.5469 34.7051 26.1441 30.4065 34.0981 22.4526C33.3514 23.1993 32.1408 23.1993 31.3941 22.4526C30.6474 21.706 30.6474 20.4953 31.3941 19.7486L27.2007 15.5551C26.454 16.3019 25.2435 16.3019 24.4968 15.5551C23.7501 14.8085 23.7501 13.598 24.4968 12.8513Z" fill="#DA2F3C"/>
<path d="M38.7948 8.1543C39.9528 9.31235 36.6394 14.5032 31.3942 19.7485C26.1489 24.9937 20.9579 28.3072 19.8 27.1491C18.6419 25.9912 21.9554 20.8002 27.2006 15.5549C32.4459 10.3098 37.6368 6.99637 38.7948 8.1543Z" fill="#C30C30"/>
<path d="M19.8 27.1491C20.9579 28.3072 26.1489 24.9937 31.3942 19.7485C34.0091 17.1334 36.1438 14.532 37.4837 12.437C30.7853 18.7224 27.2006 15.5549 27.2006 15.5549C21.9554 20.8002 18.6419 25.9912 19.8 27.1491Z" fill="#A90229"/>
</g>
</svg>
    