<svg width="16" height="20" viewBox="0 0 16 20" fill="none" xmlns="http://www.w3.org/2000/svg">
    <path fill-rule="evenodd" clip-rule="evenodd" d="M7.94842 2.99177e-07H8.05158C9.73182 -1.44495e-05 11.0627 -2.61983e-05 12.1042 0.142451C13.1762 0.289082 14.0438 0.598028 14.728 1.29418C15.4122 1.99033 15.7159 2.87307 15.86 3.9637C16 5.02343 16 6.37751 16 8.08706V11.9129C16 13.6225 16 14.9766 15.86 16.0363C15.7159 17.1269 15.4122 18.0097 14.728 18.7058C14.0438 19.402 13.1762 19.7109 12.1042 19.8575C11.0627 20 9.73182 20 8.05158 20H7.94842C6.26819 20 4.93732 20 3.89575 19.8575C2.82382 19.7109 1.95621 19.402 1.27199 18.7058C0.587776 18.0097 0.284126 17.1269 0.140009 16.0363C-2.57492e-05 14.9766 -1.42018e-05 13.6225 2.94048e-07 11.9129V8.08705C-1.42018e-05 6.37751 -2.57492e-05 5.02343 0.140009 3.9637C0.284126 2.87307 0.587776 1.99033 1.27199 1.29418C1.95621 0.598028 2.82382 0.289082 3.89575 0.142451C4.93732 -2.61983e-05 6.26818 -1.44495e-05 7.94842 2.99177e-07ZM4.07849 1.52536C3.15864 1.65119 2.62867 1.88716 2.24174 2.28084C1.85481 2.67452 1.62288 3.21373 1.49921 4.14963C1.37289 5.10559 1.37143 6.36575 1.37143 8.13953V11.8605C1.37143 13.6343 1.37289 14.8944 1.49921 15.8504C1.62288 16.7863 1.85481 17.3255 2.24174 17.7192C2.62867 18.1128 3.15864 18.3488 4.07849 18.4746C5.01807 18.6032 6.25662 18.6046 8 18.6046C9.74338 18.6046 10.9819 18.6032 11.9215 18.4746C12.8414 18.3488 13.3713 18.1128 13.7583 17.7192C14.1452 17.3255 14.3771 16.7863 14.5008 15.8504C14.6271 14.8944 14.6286 13.6343 14.6286 11.8605V8.13953C14.6286 6.36575 14.6271 5.10559 14.5008 4.14963C14.3771 3.21373 14.1452 2.67452 13.7583 2.28084C13.3713 1.88716 12.8414 1.65119 11.9215 1.52536C10.9819 1.39683 9.74338 1.39535 8 1.39535C6.25662 1.39535 5.01807 1.39683 4.07849 1.52536ZM4.57143 3.48837C4.57143 3.10306 4.87843 2.7907 5.25714 2.7907H10.7429C11.1216 2.7907 11.4286 3.10306 11.4286 3.48837C11.4286 3.87369 11.1216 4.18605 10.7429 4.18605H5.25714C4.87843 4.18605 4.57143 3.87369 4.57143 3.48837ZM8 13.4884C7.36882 13.4884 6.85714 14.009 6.85714 14.6512C6.85714 15.2934 7.36882 15.814 8 15.814C8.63118 15.814 9.14286 15.2934 9.14286 14.6512C9.14286 14.009 8.63118 13.4884 8 13.4884ZM5.48571 14.6512C5.48571 13.2383 6.6114 12.093 8 12.093C9.3886 12.093 10.5143 13.2383 10.5143 14.6512C10.5143 16.064 9.3886 17.2093 8 17.2093C6.6114 17.2093 5.48571 16.064 5.48571 14.6512Z" fill="white"/>
</svg>
