<svg width="60" height="60" viewBox="0 0 60 60" fill="none" xmlns="http://www.w3.org/2000/svg">
<g clip-path="url(#clip0_1949_1181)">
<path d="M60 30.3517C60 30.5441 59.9975 30.7377 59.9939 30.929C59.9746 31.9382 59.9056 32.9365 59.7882 33.918C59.545 35.9437 59.0973 37.9064 58.468 39.7846C57.3027 43.2576 55.5129 46.4438 53.2307 49.2089C52.9439 49.5575 52.6486 49.8987 52.3461 50.2327C52.0775 50.5303 51.8029 50.822 51.5221 51.1076C51.2885 51.3473 51.0502 51.582 50.8069 51.8131C50.2925 52.3043 49.7589 52.7764 49.2095 53.2301C46.1757 55.7338 42.6349 57.6457 38.7639 58.7894C36.098 59.5771 33.2748 59.9994 30.3524 59.9994C22.3512 59.9994 15.0918 56.8302 9.7588 51.68C8.31516 50.2847 7.01309 48.7466 5.87555 47.0852C4.06161 44.4374 2.66637 41.48 1.78536 38.3083C1.08106 35.7767 0.704773 33.1084 0.704773 30.3518C0.704773 28.6613 0.846335 27.0047 1.11985 25.3916C1.26505 24.5215 1.4502 23.6636 1.6704 22.8202C2.10364 21.1648 2.67598 19.5662 3.37548 18.0366C3.39247 18.0016 3.40817 17.9652 3.42505 17.9301C3.45048 17.8732 3.47708 17.8163 3.50368 17.7606C3.65497 17.4387 3.81106 17.1204 3.97442 16.8046C4.40884 15.9587 4.88321 15.137 5.39626 14.3409C5.56079 14.0819 5.73141 13.8278 5.9045 13.5748C6.13196 13.2445 6.36434 12.9201 6.60399 12.5995C7.33735 11.6216 8.12872 10.6899 8.97458 9.81133C9.2468 9.52691 9.52641 9.24742 9.81071 8.97391C10.6904 8.12805 11.6222 7.33668 12.6 6.60332C12.9206 6.36367 13.2462 6.13012 13.5765 5.90512C13.8271 5.73086 14.0811 5.56141 14.339 5.39687C15.1352 4.88383 15.9581 4.40945 16.804 3.97375C17.1198 3.81156 17.4393 3.6543 17.7612 3.50301C17.8168 3.47641 17.8725 3.4498 17.9293 3.42437C17.9644 3.40867 17.9995 3.39168 18.0346 3.37598C19.5641 2.67648 21.164 2.10297 22.8205 1.66973C25.225 1.03926 27.7493 0.704102 30.3523 0.704102C38.4176 0.704102 45.7291 3.92418 51.0742 9.14828C52.4344 10.477 53.6663 11.9351 54.7505 13.5034C55.6726 14.8357 56.487 16.2468 57.184 17.7243C58.9908 21.5555 60 25.8355 60 30.3517Z" fill="#4BC999"/>
<path d="M54.7506 13.5036H42.9932C42.3917 13.5036 41.8472 13.2603 41.4539 12.8659C41.0594 12.4726 40.8162 11.928 40.8162 11.3254C40.8162 10.1226 41.7903 9.14844 42.9932 9.14844H51.0743C52.4344 10.4771 53.6662 11.9353 54.7506 13.5036Z" fill="#5BD3A2"/>
<path d="M60 30.3519C60 30.5443 59.9975 30.7379 59.9939 30.9292H45.5344C44.933 30.9292 44.3884 30.6847 43.9939 30.2914C43.6007 29.897 43.3562 29.3524 43.3562 28.751C43.3562 27.5482 44.3316 26.5729 45.5344 26.5729H52.156C52.7575 26.5729 53.302 26.3284 53.6965 25.9351C54.0898 25.5407 54.3342 24.9961 54.3342 24.3947C54.3342 23.1919 53.3589 22.2165 52.156 22.2165H50.3082C49.7068 22.2165 49.1623 21.9721 48.7678 21.5788C48.3734 21.1843 48.1301 20.6398 48.1301 20.0384C48.1301 18.8355 49.1054 17.8602 50.3082 17.8602H56.4253C56.6916 17.8602 56.9481 17.8118 57.1841 17.7246C58.9908 21.5557 60 25.8357 60 30.3519Z" fill="#5BD3A2"/>
<path d="M25.4527 36.2814C25.4527 37.4855 24.4773 38.4595 23.2745 38.4595H2.58282C2.30087 38.4595 2.03227 38.4063 1.78536 38.3082C1.08106 35.7766 0.704773 33.1084 0.704773 30.3518C0.704773 28.6612 0.846335 27.0047 1.11985 25.3916H19.8861C20.4875 25.3916 21.0321 25.6361 21.4266 26.0293C21.821 26.4238 22.0643 26.9684 22.0643 27.5698C22.0643 28.7726 21.089 29.7479 19.8861 29.7479H12.8675C11.6647 29.7479 10.6894 30.7233 10.6894 31.9261C10.6894 33.1289 11.6647 34.1043 12.8675 34.1043H23.2745C23.8759 34.1043 24.4205 34.3475 24.8149 34.742C25.2094 35.1354 25.4527 35.68 25.4527 36.2814Z" fill="#5BD3A2"/>
<path d="M52.346 50.2331C52.0774 50.5308 51.8027 50.8225 51.5219 51.108C51.2884 51.3477 51.05 51.5824 50.8067 51.8135C50.2924 52.3048 49.7587 52.7768 49.2094 53.2305C46.1756 55.7343 42.6348 57.6462 38.7637 58.7898H38.6488C38.0474 58.7898 37.5028 58.5465 37.1083 58.1521C36.7151 57.7576 36.4706 57.213 36.4706 56.6116C36.4706 55.4075 35.4953 54.4335 34.2924 54.4335H30.8436C30.2422 54.4335 29.6976 54.1902 29.3044 53.7957C28.9099 53.4013 28.6666 52.8567 28.6666 52.2553C28.6666 51.0525 29.6408 50.0771 30.8436 50.0771H51.5365C51.8232 50.077 52.0967 50.1327 52.346 50.2331Z" fill="#5BD3A2"/>
<path d="M59.7882 33.918C59.545 35.9437 59.0973 37.9064 58.468 39.7846L9.75879 51.68C8.31516 50.2847 7.01309 48.7466 5.87555 47.0852L59.7882 33.918Z" fill="#FCF8F2"/>
<path d="M31.2586 38.0929C31.0274 38.3241 30.6525 38.3241 30.4212 38.0929L2.57746 10.2491C2.34625 10.0179 2.34625 9.64302 2.57746 9.41169C2.80867 9.18048 3.18355 9.18048 3.41488 9.41169L31.2586 37.2554C31.4897 37.4868 31.49 37.8617 31.2586 38.0929Z" fill="#F9EED7"/>
<path d="M39.2693 25.6023C39.0381 25.8335 38.6632 25.8335 38.4319 25.6023L15.068 2.23837C14.8368 2.00716 14.8368 1.63228 15.068 1.40095C15.2992 1.16974 15.6741 1.16974 15.9054 1.40095L39.2693 24.7649C39.5004 24.9961 39.5005 25.3709 39.2693 25.6023Z" fill="#F9EED7"/>
<path d="M25.6017 39.2702C25.3705 39.5014 24.9956 39.5014 24.7643 39.2702L1.40052 15.9064C1.16931 15.6752 1.16931 15.3003 1.40052 15.069C1.63173 14.8376 2.00661 14.8377 2.23794 15.069L25.6019 38.4329C25.8329 38.664 25.8329 39.0388 25.6017 39.2702Z" fill="#F9EED7"/>
<path d="M38.0924 31.2589C37.8612 31.4901 37.4863 31.4901 37.255 31.2589L9.4112 3.41513C9.17999 3.18392 9.17999 2.80903 9.4112 2.57771C9.64241 2.34649 10.0173 2.34649 10.2486 2.57771L38.0924 30.4215C38.3236 30.6527 38.3236 31.0277 38.0924 31.2589Z" fill="#F9EED7"/>
<path d="M35.8687 35.8689C35.6375 36.1001 35.2626 36.1001 35.0313 35.8689L4.80109 5.63876C4.56988 5.40755 4.56988 5.03267 4.80109 4.80134C5.0323 4.57013 5.40719 4.57013 5.63852 4.80134L35.8688 35.0316C36.0999 35.2627 36.0999 35.6376 35.8687 35.8689Z" fill="#F9EED7"/>
<path d="M28.2976 6.37595L6.37582 28.2979C6.14461 28.5291 5.76973 28.5291 5.5384 28.2979C5.30719 28.0666 5.30719 27.6918 5.5384 27.4604L27.4602 5.53864C27.6914 5.30743 28.0663 5.30743 28.2976 5.53864C28.5288 5.76985 28.5288 6.14474 28.2976 6.37595Z" fill="#F9EED7"/>
<path d="M37.3081 17.8673L17.8666 37.3087C17.6354 37.5399 17.2606 37.5399 17.0292 37.3087C16.7979 37.0775 16.798 36.7026 17.0292 36.4713L36.4706 17.0299C36.7018 16.7986 37.0767 16.7986 37.3081 17.0299C37.5394 17.2611 37.5393 17.6361 37.3081 17.8673Z" fill="#F9EED7"/>
<path d="M23.6406 4.19931L4.19917 23.6407C3.96796 23.8719 3.59307 23.8719 3.36175 23.6407C3.13042 23.4095 3.13053 23.0346 3.36175 22.8033L22.8032 3.36188C23.0344 3.13067 23.4092 3.13067 23.6406 3.36188C23.8719 3.5931 23.8719 3.96798 23.6406 4.19931Z" fill="#F9EED7"/>
<path d="M18.4491 2.96286L2.96253 18.4494C2.73132 18.6806 2.35644 18.6806 2.12511 18.4494C1.89378 18.2182 1.8939 17.8433 2.12511 17.612L17.6117 2.12556C17.8429 1.89435 18.2178 1.89435 18.4491 2.12556C18.6803 2.35677 18.6803 2.73165 18.4491 2.96286Z" fill="#F9EED7"/>
<path d="M38.5449 23.0587L23.0582 38.5452C22.827 38.7765 22.4521 38.7765 22.2208 38.5452C21.9894 38.314 21.9895 37.9391 22.2208 37.7078L37.7074 22.2213C37.9386 21.99 38.3135 21.99 38.5449 22.2213C38.7761 22.4526 38.7761 22.8275 38.5449 23.0587Z" fill="#F9EED7"/>
<path d="M35.1314 13.2099L13.2095 35.1318C12.9783 35.3631 12.6034 35.3631 12.3721 35.1318C12.1409 34.9006 12.1409 34.5257 12.3721 34.2944L34.2939 12.3726C34.5251 12.1414 34.9 12.1414 35.1313 12.3726C35.3626 12.6037 35.3627 12.9786 35.1314 13.2099Z" fill="#F9EED7"/>
<path d="M31.6788 9.82919L9.82827 31.6799C9.59706 31.9111 9.22218 31.9111 8.99085 31.6799C8.75964 31.4486 8.75964 31.0738 8.99085 30.8424L30.8415 8.99177C31.0727 8.76056 31.4476 8.76056 31.6789 8.99177C31.9102 9.2231 31.9101 9.59798 31.6788 9.82919Z" fill="#F9EED7"/>
<path d="M48.1057 47.1086L47.1089 48.1054C46.6992 48.515 46.0373 48.5223 45.6186 48.1221L44.7018 47.2454C40.7694 43.4907 35.6306 41.0588 30.2328 40.3978L27.0491 40.0078L27.3083 37.892L30.4919 38.282C35.0409 38.839 39.42 40.5565 43.1472 43.2066C40.255 39.2348 38.4616 34.5379 37.9934 29.5766L37.8323 27.8781C37.8286 27.8381 37.827 27.798 37.8277 27.7581L38.9034 27.7765L39.9543 27.6768L40.1155 29.3757C40.7007 35.5753 43.5288 41.3284 48.0793 45.5759C48.2906 45.7731 48.4127 46.0477 48.4176 46.3366C48.4227 46.6256 48.3099 46.9043 48.1057 47.1086Z" fill="#FF525D"/>
<path d="M53.2307 49.2094C52.6885 49.8665 52.1185 50.5006 51.5219 51.1081C51.2884 51.3478 51.05 51.5825 50.8067 51.8136C50.2924 52.3048 49.7587 52.7769 49.2094 53.2306L45.3468 49.368C44.836 48.8561 44.7017 48.1107 44.9426 47.4766C45.0285 47.2491 45.1641 47.0374 45.3468 46.8546L46.8545 45.3467C47.0276 45.1749 47.2271 45.0441 47.4402 44.9582C48.0816 44.6969 48.8463 44.8263 49.3679 45.3467L51.6501 47.6302C51.6635 47.6423 51.6756 47.6545 51.6888 47.6677L53.2307 49.2094Z" fill="#279FC9"/>
<path d="M53.2307 49.2093C52.6886 49.8664 52.1186 50.5005 51.522 51.108C51.2884 51.3476 51.05 51.5824 50.8068 51.8135L47.1039 48.1106L46.8546 47.8613C46.16 47.1667 46.16 46.0413 46.8546 45.3467C47.0277 45.1749 47.2273 45.0441 47.4403 44.9582C48.0817 44.6969 48.8464 44.8263 49.368 45.3467L51.6503 47.6302C51.6636 47.6423 51.6757 47.6545 51.6889 47.6677L53.2307 49.2093Z" fill="#34ABE0"/>
<path d="M40.3515 22.9194C39.5347 17.6518 36.7333 12.3999 32.4653 8.13184C29.596 5.26262 26.2828 3.05668 22.8207 1.66989C21.1302 0.993364 19.4045 0.513013 17.6777 0.244302C12.2262 -0.600269 7.39663 0.761098 4.07846 4.07797C0.760414 7.39614 -0.600953 12.2257 0.244906 17.6771C0.5135 19.4052 0.993969 21.1307 1.67038 22.8201C3.056 26.2835 5.26194 29.5956 8.13116 32.4647C12.4004 36.7327 17.6511 39.5341 22.9187 40.3509C25.1743 40.7006 27.3247 40.6728 29.3045 40.2832C30.7892 39.994 32.1785 39.5002 33.4454 38.8116C34.5721 38.1993 35.6031 37.4321 36.5178 36.5172C37.3746 35.6605 38.1007 34.7033 38.69 33.6614C39.3544 32.4924 39.8481 31.217 40.1664 29.8556C40.6649 27.7258 40.7339 25.3868 40.3515 22.9194ZM34.6628 33.8248C34.5321 33.9725 34.3965 34.1165 34.2561 34.2568C34.1157 34.3972 33.973 34.5315 33.8253 34.6622C32.8888 35.4947 31.8044 36.1433 30.6028 36.5983C30.1914 36.7544 29.7654 36.8887 29.3273 36.9977C27.8474 37.3728 26.221 37.4866 24.4953 37.3256C24.4288 37.3208 24.3622 37.3135 24.2956 37.3063C24.0028 37.276 23.7075 37.2372 23.4087 37.1913C23.2174 37.1611 23.0263 37.1284 22.835 37.092C22.7321 37.0739 22.6305 37.0545 22.5276 37.0327C21.3937 36.8016 20.2623 36.4652 19.1442 36.0296C18.7498 35.876 18.3576 35.7102 17.9668 35.5323C16.8378 35.0168 15.7281 34.4008 14.6523 33.6893C14.3183 33.4714 13.9891 33.2428 13.6624 33.0043C12.6907 32.2975 11.7505 31.5123 10.8538 30.6531C10.6989 30.5067 10.5452 30.3566 10.3928 30.2041C10.2657 30.0771 10.1386 29.9476 10.014 29.8181C9.15362 28.925 8.36459 27.9872 7.65432 27.0179C7.41467 26.6936 7.18604 26.3656 6.96456 26.0341C6.96456 26.0329 6.96456 26.0329 6.96456 26.0329C6.25065 24.9608 5.63096 23.8559 5.11065 22.7293C4.9303 22.3408 4.7633 21.95 4.60721 21.5579C4.15217 20.4058 3.80131 19.2382 3.56284 18.0679C3.54948 18.0075 3.53741 17.9457 3.52651 17.8852C3.51807 17.8441 3.50952 17.8017 3.50354 17.7606C3.46721 17.5693 3.43334 17.3782 3.40428 17.1869C3.36432 16.934 3.33163 16.6823 3.30385 16.4331C3.29049 16.3217 3.27959 16.2104 3.26998 16.1002C3.11026 14.3747 3.22276 12.7482 3.59788 11.2682C3.70803 10.829 3.84116 10.4042 3.99725 9.99278C4.45346 8.79114 5.10092 7.70692 5.93342 6.77024C6.06409 6.62258 6.19838 6.47985 6.33877 6.33946C6.47916 6.19907 6.6219 6.06477 6.76956 5.93282C7.70623 5.10149 8.79045 4.45286 9.99327 3.99665C10.4047 3.84055 10.8307 3.70743 11.2687 3.59727C12.7487 3.22215 14.3727 3.10965 16.0983 3.26809C16.2096 3.27782 16.3209 3.28989 16.4334 3.30313C16.6827 3.33102 16.9344 3.3636 17.1873 3.40356C17.3785 3.43379 17.5697 3.46649 17.7609 3.50282C17.8021 3.50891 17.8432 3.51735 17.8843 3.52579C17.9448 3.53668 18.0065 3.54875 18.067 3.56211C19.2371 3.7993 20.4049 4.15028 21.557 4.60766C21.9491 4.76258 22.3411 4.92957 22.7296 5.10981C23.8549 5.63012 24.961 6.25098 26.0332 6.96489C26.3647 7.18508 26.6939 7.41501 27.0183 7.65465C27.9875 8.36504 28.9242 9.15395 29.8173 10.0143C29.9468 10.1377 30.0763 10.2649 30.2033 10.3919C30.3558 10.5444 30.5059 10.6981 30.6534 10.8529C31.5102 11.7497 32.2956 12.6887 33.0035 13.6616C33.2407 13.9883 33.4694 14.3186 33.6885 14.6515C34.4 15.7272 35.016 16.8369 35.5315 17.9672C35.7105 18.3568 35.8764 18.7501 36.0288 19.1445C36.4657 20.2615 36.8021 21.3941 37.0332 22.528C37.055 22.6309 37.0744 22.7325 37.0925 22.8354C37.1289 23.0266 37.1627 23.2177 37.1918 23.409C37.2377 23.7079 37.2765 24.0031 37.3067 24.296C37.314 24.3625 37.3213 24.4291 37.3261 24.4957C37.4858 26.2213 37.3733 27.8464 36.9982 29.3264C36.8893 29.7656 36.7549 30.1904 36.5988 30.6018C36.1439 31.804 35.4953 32.8882 34.6628 33.8248Z" fill="#FF525D"/>
<path d="M53.2307 49.2095C52.6886 49.8666 52.1186 50.5007 51.522 51.1082L49.8848 49.4709C49.4733 49.0595 49.4733 48.3915 49.8848 47.9789L50.1958 47.6679C50.5951 47.2685 51.2352 47.2553 51.6503 47.6304C51.6637 47.6425 51.6757 47.6547 51.689 47.6679L53.2307 49.2095Z" fill="#78CAEF"/>
<path d="M40.1566 11.2631C40.1216 11.4545 40.0798 11.6432 40.0314 11.8284C39.2699 14.7436 36.8923 16.8718 34.0564 17.4148C33.6812 17.4874 33.2973 17.5315 32.9081 17.546C32.3579 17.5672 31.7974 17.5284 31.2332 17.425C30.0467 17.2076 28.9741 16.7283 28.065 16.0569C27.8089 15.8686 27.5655 15.6641 27.3369 15.4461C25.5228 13.7228 24.5871 11.1466 25.0712 8.50148C25.245 7.55297 25.5864 6.6777 26.059 5.89992C26.3307 5.45262 26.6455 5.03801 26.9978 4.66031C28.267 3.29707 30.0133 2.41758 31.9123 2.24461C32.5919 2.18227 33.2906 2.21074 33.9944 2.33965C36.1438 2.73305 37.9186 3.9873 39.0281 5.6816C39.335 6.14953 39.5911 6.65063 39.789 7.17727C40.2669 8.43809 40.4169 9.8407 40.1566 11.2631Z" fill="#EDBB4C"/>
<path d="M40.1566 11.2631C40.1216 11.4545 40.0798 11.6432 40.0314 11.8284C39.0654 13.5505 37.3771 14.7623 35.4456 15.1322C35.1176 15.1951 34.7822 15.2338 34.442 15.2466C33.9613 15.2653 33.4717 15.2314 32.9783 15.1406C31.9413 14.9511 31.0044 14.5323 30.2096 13.9452C29.9863 13.7811 29.7732 13.602 29.5735 13.4119C27.9884 11.9059 27.1705 9.65414 27.5935 7.3425C27.7455 6.51387 28.0439 5.74875 28.4567 5.06894C28.6946 4.67859 28.9694 4.3159 29.2775 3.98602C30.0039 3.20637 30.9083 2.60707 31.9124 2.24461C32.5921 2.18227 33.2907 2.21074 33.9946 2.33965C36.1439 2.73305 37.9187 3.9873 39.0282 5.6816C39.3351 6.14953 39.5912 6.65062 39.7891 7.17727C40.2669 8.43809 40.4169 9.8407 40.1566 11.2631Z" fill="#FFD15C"/>
<path d="M28.763 12.864C28.7079 13.927 28.4935 14.9589 28.1262 15.9322C28.1195 15.9492 28.1122 15.9661 28.1038 15.9825L28.0651 16.0569C27.809 15.8686 27.5657 15.6641 27.337 15.4461C27.6348 14.6095 27.8092 13.7258 27.8564 12.8172C27.9132 11.7282 27.4951 10.7387 27.0525 9.69078C26.5918 8.59754 26.0768 7.37973 26.0592 5.89977C26.331 5.45246 26.6457 5.03785 26.998 4.66016V5.19289C26.998 5.20859 26.9974 5.22371 26.9962 5.23883C26.8333 6.83621 27.3703 8.10805 27.8891 9.33734C28.3521 10.4338 28.8301 11.5674 28.763 12.864Z" fill="#F9EED7"/>
<path d="M39.7892 7.17742C39.6718 7.48129 39.4781 7.78328 39.2172 8.06172C38.704 8.60898 37.977 9.03074 37.1163 9.28199C34.1763 10.1397 32.6479 11.8491 32.574 14.3635C32.5419 15.4482 33.1835 16.6135 33.8033 17.1589C33.8117 17.1661 33.8203 17.174 33.8281 17.1818L34.0564 17.4149C33.6812 17.4876 33.2973 17.5316 32.9081 17.5462C32.2259 16.7853 31.631 15.542 31.666 14.3369C31.7259 12.3073 32.6757 9.63121 36.862 8.41035C38.4013 7.96187 39.0538 6.98852 39.0107 6.47148C39.0096 6.45941 39.0089 6.44664 39.0089 6.43398V6.42133L39.0282 5.68164C39.3352 6.14957 39.5913 6.65078 39.7892 7.17742Z" fill="#F9EED7"/>
<path d="M36.0044 7.35746C36.8568 7.35746 37.5478 6.66642 37.5478 5.81398C37.5478 4.96155 36.8568 4.27051 36.0044 4.27051C35.1519 4.27051 34.4609 4.96155 34.4609 5.81398C34.4609 6.66642 35.1519 7.35746 36.0044 7.35746Z" fill="#FFDC8D"/>
<path d="M33.1642 5.17918C33.6238 5.17918 33.9964 4.80656 33.9964 4.34691C33.9964 3.88727 33.6238 3.51465 33.1642 3.51465C32.7045 3.51465 32.3319 3.88727 32.3319 4.34691C32.3319 4.80656 32.7045 5.17918 33.1642 5.17918Z" fill="#FFDC8D"/>
</g>
<defs>
<clipPath id="clip0_1949_1181">
<rect width="60" height="60" fill="white"/>
</clipPath>
</defs>
</svg>
